<?xml version="1.0" encoding="UTF-8"?>
<svg version="1.1" xmlns="http://www.w3.org/2000/svg" width="7200" height="7200">
<path d="M0 0 C0.66 0.33 1.32 0.66 2 1 C0.90074158 4.89705827 -0.20207185 8.79309145 -1.30810547 12.68823242 C-1.68341938 14.01185242 -2.05778209 15.33574253 -2.43115234 16.65991211 C-2.96979104 18.56956583 -3.51220151 20.47815439 -4.0546875 22.38671875 C-4.37937012 23.53358154 -4.70405273 24.68044434 -5.03857422 25.86206055 C-5.89359029 28.65269578 -6.8956929 31.30145492 -8 34 C-8.53135157 35.95006024 -9.03024837 37.90919155 -9.5 39.875 C-11.53896426 48.36329685 -14.11003202 56.66276174 -16.6875 65 C-19.66598516 74.65402439 -22.62195024 84.31450424 -25.55419922 93.98266602 C-27.63942222 100.84677632 -29.77791003 107.69248913 -31.95703125 114.52734375 C-32.72042668 117.06913603 -33.41077402 119.58231433 -34.04296875 122.15625 C-34.75833714 125.02940306 -35.52625599 127.77357016 -36.5 130.5625 C-37.39000429 133.12126232 -38.19088328 135.67008816 -38.93359375 138.27734375 C-39.67067434 140.850376 -40.43266317 143.39227097 -41.25390625 145.9375 C-41.57584961 146.93910156 -41.57584961 146.93910156 -41.90429688 147.9609375 C-42.34346906 149.32145904 -42.78618635 150.68084127 -43.23242188 152.0390625 C-44.26237349 155.2627177 -45.02452992 158.18799403 -45.46484375 161.5625 C-45.96055565 164.74663483 -46.90717363 167.11250767 -48.19664001 170.03231812 C-49.59618599 173.46024744 -50.52005676 177.01296922 -51.48828125 180.58203125 C-51.71396286 181.39508224 -51.93964447 182.20813324 -52.17216492 183.04582214 C-52.89025272 185.6334584 -53.60214794 188.22273028 -54.3125 190.8125 C-57.28489982 201.64771121 -60.34054 212.40763246 -64.00202942 223.03364563 C-65.74403207 228.10318695 -67.16660769 233.19204911 -68.359375 238.421875 C-69.08570022 241.34489111 -70.03603199 244.1463763 -71 247 C-71.87505006 249.8270848 -72.71785545 252.66370218 -73.5625 255.5 C-75.27140387 261.22833793 -76.98402645 266.95537107 -78.71983337 272.67562866 C-79.53055765 275.34815938 -80.33869612 278.02146934 -81.146698 280.69482422 C-81.54491373 282.01011049 -81.94424407 283.32505988 -82.34475708 284.63964844 C-84.98127997 293.22766149 -84.98127997 293.22766149 -87.078125 301.95703125 C-87.89522224 305.89659106 -89.39310787 309.30454292 -91 313 C-92.24078664 316.80614762 -93.33931695 320.65062074 -94.4375 324.5 C-94.74461914 325.56355713 -95.05173828 326.62711426 -95.36816406 327.72290039 C-97.39695117 334.78348657 -99.3147424 341.86615769 -101.17578125 348.97265625 C-102.05324793 352.19557888 -103.07732177 355.33298704 -104.16796875 358.48828125 C-105.27287283 361.82374287 -106.26284871 365.19081162 -107.25 368.5625 C-107.45729736 369.26995361 -107.66459473 369.97740723 -107.87817383 370.70629883 C-109.18693782 375.18665197 -110.48182969 379.67092384 -111.7734375 384.15625 C-112.07991211 385.21642334 -112.38638672 386.27659668 -112.70214844 387.36889648 C-113.30454583 389.45354207 -113.90427776 391.53896027 -114.50097656 393.62524414 C-115.74642981 397.93178124 -117.01829204 402.18418442 -118.625 406.37109375 C-119.78395167 409.42980426 -120.65467128 412.31932775 -121.375 415.5 C-122.56655172 420.47425558 -124.00287415 425.32019603 -125.5625 430.1875 C-127.13982558 435.11115759 -128.51592337 439.99446299 -129.54296875 445.0625 C-130.18984467 447.80481161 -131.18860696 450.36463485 -132.21484375 452.984375 C-134.74045578 459.46803575 -136.53645111 466.04621484 -138.1796875 472.80078125 C-139.7992024 479.11688936 -141.56558032 485.48458509 -144.03125 491.52734375 C-145.07857353 494.2005526 -145.77148465 496.83300346 -146.4375 499.625 C-148.95606614 509.93973067 -151.67929168 520.1065999 -155.5625 530 C-156.88287271 533.46170254 -157.69864792 536.90601262 -158.44213867 540.53027344 C-158.9945727 542.97597263 -159.6656643 545.34477114 -160.3984375 547.7421875 C-160.66495117 548.61891113 -160.93146484 549.49563477 -161.20605469 550.39892578 C-161.46805664 551.25728027 -161.73005859 552.11563477 -162 553 C-162.43059186 554.43202005 -162.86032327 555.8642992 -163.2890625 557.296875 C-163.61088501 558.36953613 -163.61088501 558.36953613 -163.93920898 559.46386719 C-164.42060941 561.06864954 -164.90188068 562.67347064 -165.38305664 564.27832031 C-166.96732318 569.56142034 -168.55462022 574.84359569 -170.14453125 580.125 C-173.65705917 591.800924 -177.15931932 603.47910193 -180.5625 615.1875 C-183.13184076 624.02497734 -185.711201 632.85936734 -188.3125 641.6875 C-188.65031494 642.84080811 -188.98812988 643.99411621 -189.33618164 645.18237305 C-189.81365845 646.79946167 -189.81365845 646.79946167 -190.30078125 648.44921875 C-190.58091064 649.40143311 -190.86104004 650.35364746 -191.1496582 651.3347168 C-191.98358155 653.94853855 -192.97487551 656.45643806 -194 659 C-194.79934923 662.04152381 -195.50797427 665.09686736 -196.21875 668.16015625 C-196.91380894 670.68669549 -197.82125166 672.68195933 -199 675 C-199.144375 676.093125 -199.28875 677.18625 -199.4375 678.3125 C-200 682 -200 682 -201.34375 685 C-203.57816369 690.03495013 -204.74545512 695.35532085 -206.0625 700.6875 C-206.57000123 702.73412335 -207.08156267 704.77974521 -207.59765625 706.82421875 C-207.81945557 707.72229248 -208.04125488 708.62036621 -208.26977539 709.5456543 C-208.96498401 711.88230834 -209.88376946 713.84182197 -211 716 C-211.82116791 719.05885048 -212.51639425 722.13458123 -213.21875 725.22265625 C-214 728 -214 728 -216 731 C-215.15383621 731.04721695 -214.30767242 731.0944339 -213.43586731 731.14308167 C-204.79062271 731.68469846 -196.37217183 732.73745658 -187.82421875 734.15234375 C-186.47771642 734.37037505 -185.1311149 734.58779453 -183.78442383 734.80465698 C-180.91655732 735.26748581 -178.04929228 735.73381332 -175.1824646 736.20303345 C-168.20355454 737.34485083 -161.22146383 738.46699129 -154.23963356 739.59078789 C-152.63753552 739.84875065 -151.03547348 740.10693707 -149.43344688 740.36534309 C-133.5304836 742.93047112 -117.61213281 745.38535349 -101.6875 747.8125 C-74.97262899 751.89036994 -48.28423623 756.12624433 -21.5986557 760.39121246 C4.64931463 764.58553431 30.90683661 768.70311438 57.1875 772.6875 C81.17472427 776.32417956 105.14244177 780.06617902 129.09750748 783.90900421 C150.67852911 787.37079654 172.26936777 790.75776373 193.875 794.0625 C222.08585169 798.37823724 250.27437262 802.82546682 278.45684814 807.32260132 C286.06444625 808.535562 293.67382988 809.73645007 301.28515625 810.92578125 C302.20213791 811.06932037 303.11911957 811.2128595 304.06388855 811.36074829 C308.18692449 812.00609797 312.31026663 812.6493105 316.43432617 813.28808594 C317.82602814 813.50573774 319.21771242 813.72350273 320.609375 813.94140625 C321.78467773 814.12388916 322.95998047 814.30637207 324.17089844 814.49438477 C327 815 327 815 330 816 C329.67 817.32 329.34 818.64 329 820 C328.34 820 327.68 820 327 820 C327 820.66 327 821.32 327 822 C325.51143934 823.33264423 323.95696355 824.59219479 322.375 825.8125 C321.46105469 826.52664063 320.54710938 827.24078125 319.60546875 827.9765625 C318.74566406 828.64429687 317.88585938 829.31203125 317 830 C314.12583252 832.3017958 311.35699353 834.64300647 308.75 837.25 C306.15911351 839.84088649 303.51309654 842.33663028 300.8125 844.8125 C299.95269531 845.60269531 299.09289063 846.39289062 298.20703125 847.20703125 C296 849 296 849 294 849 C293.773125 849.5775 293.54625 850.155 293.3125 850.75 C291.65151778 853.59739809 289.68475439 855.12067193 287 857 C286.34 857 285.68 857 285 857 C285 857.66 285 858.32 285 859 C283.56640625 860.4453125 283.56640625 860.4453125 281.5625 862.125 C280.83160156 862.74632813 280.10070313 863.36765625 279.34765625 864.0078125 C278.57292969 864.66523438 277.79820313 865.32265625 277 866 C275.49626746 867.32912235 273.99626132 868.66247249 272.5 870 C271.75492188 870.66128906 271.00984375 871.32257812 270.2421875 872.00390625 C268.74221124 873.33925096 267.24743317 874.68045677 265.7578125 876.02734375 C265.05398438 876.65769531 264.35015625 877.28804687 263.625 877.9375 C262.68527344 878.78634766 262.68527344 878.78634766 261.7265625 879.65234375 C260 881 260 881 257 882 C257 882.66 257 883.32 257 884 C255.5390625 885.5078125 255.5390625 885.5078125 253.625 887.125 C252.68527344 887.93324219 252.68527344 887.93324219 251.7265625 888.7578125 C250 890 250 890 248 890 C248 890.66 248 891.32 248 892 C246.49609375 893.515625 246.49609375 893.515625 244.4375 895.25 C243.71175781 895.86488281 242.98601562 896.47976563 242.23828125 897.11328125 C241.49964844 897.73589844 240.76101563 898.35851563 240 899 C239.33355469 899.59167969 238.66710938 900.18335937 237.98046875 900.79296875 C237.06201172 901.60701172 237.06201172 901.60701172 236.125 902.4375 C235.57070312 902.93121094 235.01640625 903.42492188 234.4453125 903.93359375 C233 905 233 905 231 905 C231 905.66 231 906.32 231 907 C229.6015625 908.41015625 229.6015625 908.41015625 227.625 910.0625 C224.37058933 912.82817409 221.16586167 915.63308192 218 918.5 C217.1646875 919.25152344 216.329375 920.00304688 215.46875 920.77734375 C213.8614652 922.2244087 212.25713732 923.67476693 210.65625 925.12890625 C209.9446875 925.76699219 209.233125 926.40507812 208.5 927.0625 C207.8709375 927.63097656 207.241875 928.19945313 206.59375 928.78515625 C205 930 205 930 203 930 C203 930.66 203 931.32 203 932 C202.34 932 201.68 932 201 932 C201 932.66 201 933.32 201 934 C196.52941176 938 196.52941176 938 194 938 C194 938.66 194 939.32 194 940 C192.6015625 941.41015625 192.6015625 941.41015625 190.625 943.0625 C187.37058933 945.82817409 184.16586167 948.63308192 181 951.5 C180.1646875 952.25152344 179.329375 953.00304688 178.46875 953.77734375 C176.8614652 955.2244087 175.25713732 956.67476693 173.65625 958.12890625 C172.9446875 958.76699219 172.233125 959.40507812 171.5 960.0625 C170.8709375 960.63097656 170.241875 961.19945313 169.59375 961.78515625 C168 963 168 963 166 963 C166 963.66 166 964.32 166 965 C164.5390625 966.5078125 164.5390625 966.5078125 162.625 968.125 C161.68527344 968.93324219 161.68527344 968.93324219 160.7265625 969.7578125 C159 971 159 971 157 971 C157 971.66 157 972.32 157 973 C155.30096977 974.51740976 153.53927277 975.965128 151.75 977.375 C148.94686688 979.59229313 146.26298803 981.7305752 143.765625 984.2890625 C142 986 142 986 140 986 C140 986.66 140 987.32 140 988 C138.6015625 989.41015625 138.6015625 989.41015625 136.625 991.0625 C133.37058933 993.82817409 130.16586167 996.63308192 127 999.5 C126.1646875 1000.25152344 125.329375 1001.00304688 124.46875 1001.77734375 C122.8614652 1003.2244087 121.25713732 1004.67476693 119.65625 1006.12890625 C118.9446875 1006.76699219 118.233125 1007.40507812 117.5 1008.0625 C116.8709375 1008.63097656 116.241875 1009.19945313 115.59375 1009.78515625 C114 1011 114 1011 112 1011 C112 1011.66 112 1012.32 112 1013 C110.5390625 1014.5078125 110.5390625 1014.5078125 108.625 1016.125 C107.68527344 1016.93324219 107.68527344 1016.93324219 106.7265625 1017.7578125 C105 1019 105 1019 103 1019 C103 1019.66 103 1020.32 103 1021 C101.6015625 1022.41015625 101.6015625 1022.41015625 99.625 1024.0625 C95.47079964 1027.58951203 91.42582271 1031.22013217 87.39453125 1034.88671875 C80.4676525 1041 80.4676525 1041 78 1041 C77.67 1041.99 77.34 1042.98 77 1044 C75.2578125 1045.7890625 75.2578125 1045.7890625 73.125 1047.625 C72.42632813 1048.23601562 71.72765625 1048.84703125 71.0078125 1049.4765625 C69 1051 69 1051 66 1052 C66 1052.66 66 1053.32 66 1054 C64.49609375 1055.515625 64.49609375 1055.515625 62.4375 1057.25 C61.71175781 1057.86488281 60.98601563 1058.47976563 60.23828125 1059.11328125 C59.49964844 1059.73589844 58.76101563 1060.35851563 58 1061 C57.33355469 1061.59167969 56.66710938 1062.18335937 55.98046875 1062.79296875 C55.06201172 1063.60701172 55.06201172 1063.60701172 54.125 1064.4375 C53.57070312 1064.93121094 53.01640625 1065.42492188 52.4453125 1065.93359375 C51 1067 51 1067 49 1067 C49 1067.66 49 1068.32 49 1069 C47.6015625 1070.41015625 47.6015625 1070.41015625 45.625 1072.0625 C41.47079964 1075.58951203 37.42582271 1079.22013217 33.39453125 1082.88671875 C26.4676525 1089 26.4676525 1089 24 1089 C23.67 1089.99 23.34 1090.98 23 1092 C21.2578125 1093.7890625 21.2578125 1093.7890625 19.125 1095.625 C18.42632813 1096.23601562 17.72765625 1096.84703125 17.0078125 1097.4765625 C15 1099 15 1099 12 1100 C12 1100.66 12 1101.32 12 1102 C10.7421875 1103.3046875 10.7421875 1103.3046875 8.875 1104.875 C8.15699219 1105.4834375 7.43898438 1106.091875 6.69921875 1106.71875 C5.80847656 1107.4715625 4.91773437 1108.224375 4 1109 C2.81760692 1110.0296405 1.6367205 1111.06101275 0.45703125 1112.09375 C-0.79934438 1113.18765483 -2.05585541 1114.28140416 -3.3125 1115.375 C-3.92303223 1115.91108887 -4.53356445 1116.44717773 -5.16259766 1116.99951172 C-7.75298897 1119.23839604 -9.71889195 1120.90629732 -13 1122 C-13.33 1122.99 -13.66 1123.98 -14 1125 C-15.7421875 1126.7890625 -15.7421875 1126.7890625 -17.875 1128.625 C-18.57367187 1129.23601562 -19.27234375 1129.84703125 -19.9921875 1130.4765625 C-22 1132 -22 1132 -25 1133 C-25 1133.66 -25 1134.32 -25 1135 C-26.47068414 1136.30863371 -28.00601318 1137.5446856 -29.5625 1138.75 C-34.47968288 1142.67612276 -39.11102996 1146.80767258 -43.6875 1151.125 C-48.70684212 1155.85510253 -53.74452138 1160.53097068 -59 1165 C-59.57363281 1165.50273437 -60.14726563 1166.00546875 -60.73828125 1166.5234375 C-64.76225829 1170 -64.76225829 1170 -67 1170 C-67.33 1170.99 -67.66 1171.98 -68 1173 C-69.7421875 1174.7890625 -69.7421875 1174.7890625 -71.875 1176.625 C-72.57367187 1177.23601562 -73.27234375 1177.84703125 -73.9921875 1178.4765625 C-76 1180 -76 1180 -79 1181 C-79 1181.66 -79 1182.32 -79 1183 C-80.4609375 1184.5078125 -80.4609375 1184.5078125 -82.375 1186.125 C-83.31472656 1186.93324219 -83.31472656 1186.93324219 -84.2734375 1187.7578125 C-86 1189 -86 1189 -88 1189 C-88 1189.66 -88 1190.32 -88 1191 C-89.71951974 1192.53851766 -91.50187497 1194.00731759 -93.3125 1195.4375 C-97.16467002 1198.45235569 -97.16467002 1198.45235569 -100.73046875 1201.78515625 C-102 1203 -102 1203 -104 1203 C-104.33 1203.99 -104.66 1204.98 -105 1206 C-106.7421875 1207.7890625 -106.7421875 1207.7890625 -108.875 1209.625 C-109.57367187 1210.23601562 -110.27234375 1210.84703125 -110.9921875 1211.4765625 C-113 1213 -113 1213 -116 1214 C-116 1214.66 -116 1215.32 -116 1216 C-117.4609375 1217.5078125 -117.4609375 1217.5078125 -119.375 1219.125 C-120.31472656 1219.93324219 -120.31472656 1219.93324219 -121.2734375 1220.7578125 C-123 1222 -123 1222 -125 1222 C-125 1222.66 -125 1223.32 -125 1224 C-126.69903023 1225.51740976 -128.46072723 1226.965128 -130.25 1228.375 C-133.05313312 1230.59229313 -135.73701197 1232.7305752 -138.234375 1235.2890625 C-140 1237 -140 1237 -142 1237 C-142 1237.66 -142 1238.32 -142 1239 C-143.57421875 1240.33203125 -143.57421875 1240.33203125 -145.6875 1241.8125 C-148.32278451 1243.71213972 -150.49785356 1245.49785356 -152.8125 1247.8125 C-155 1250 -155 1250 -158 1251 C-158.33 1251.99 -158.66 1252.98 -159 1254 C-160.49609375 1255.5078125 -160.49609375 1255.5078125 -162.4375 1257.125 C-166.70273364 1260.72692425 -170.80504546 1264.48176816 -174.8984375 1268.27734375 C-177 1270 -177 1270 -179 1270 C-179 1270.66 -179 1271.32 -179 1272 C-180.4609375 1273.5078125 -180.4609375 1273.5078125 -182.375 1275.125 C-183.31472656 1275.93324219 -183.31472656 1275.93324219 -184.2734375 1276.7578125 C-186 1278 -186 1278 -188 1278 C-188 1278.66 -188 1279.32 -188 1280 C-189.71951974 1281.53851766 -191.50187497 1283.00731759 -193.3125 1284.4375 C-197.16467002 1287.45235569 -197.16467002 1287.45235569 -200.73046875 1290.78515625 C-202 1292 -202 1292 -204 1292 C-204.33 1292.99 -204.66 1293.98 -205 1295 C-205.66 1295 -206.32 1295 -207 1295 C-207 1295.66 -207 1296.32 -207 1297 C-207.78375 1297.2475 -208.5675 1297.495 -209.375 1297.75 C-212.32317108 1299.15389099 -212.9024777 1300.00675737 -214 1303 C-214.66 1303 -215.32 1303 -216 1303 C-216 1303.66 -216 1304.32 -216 1305 C-217.69903023 1306.51740976 -219.46072723 1307.965128 -221.25 1309.375 C-224.05313312 1311.59229313 -226.73701197 1313.7305752 -229.234375 1316.2890625 C-231 1318 -231 1318 -233 1318 C-233 1318.66 -233 1319.32 -233 1320 C-234.57421875 1321.33203125 -234.57421875 1321.33203125 -236.6875 1322.8125 C-239.32278451 1324.71213972 -241.49785356 1326.49785356 -243.8125 1328.8125 C-246 1331 -246 1331 -249 1332 C-249.28875 1332.598125 -249.5775 1333.19625 -249.875 1333.8125 C-251.37206594 1336.72346154 -253.34303887 1338.14012721 -256 1340 C-256.66 1340 -257.32 1340 -258 1340 C-258.33 1340.99 -258.66 1341.98 -259 1343 C-260.7421875 1344.7890625 -260.7421875 1344.7890625 -262.875 1346.625 C-263.57367187 1347.23601562 -264.27234375 1347.84703125 -264.9921875 1348.4765625 C-267 1350 -267 1350 -270 1351 C-270 1351.66 -270 1352.32 -270 1353 C-271.4609375 1354.5078125 -271.4609375 1354.5078125 -273.375 1356.125 C-274.31472656 1356.93324219 -274.31472656 1356.93324219 -275.2734375 1357.7578125 C-277 1359 -277 1359 -279 1359 C-279 1359.66 -279 1360.32 -279 1361 C-283.47058824 1365 -283.47058824 1365 -286 1365 C-286.33 1365.99 -286.66 1366.98 -287 1368 C-292.46511628 1373 -292.46511628 1373 -295 1373 C-295.33 1373.99 -295.66 1374.98 -296 1376 C-297.7421875 1377.7890625 -297.7421875 1377.7890625 -299.875 1379.625 C-300.57367187 1380.23601562 -301.27234375 1380.84703125 -301.9921875 1381.4765625 C-304 1383 -304 1383 -307 1384 C-307 1384.66 -307 1385.32 -307 1386 C-307.78375 1386.2475 -308.5675 1386.495 -309.375 1386.75 C-312.09443129 1387.71331277 -312.09443129 1387.71331277 -312.9140625 1389.84375 C-314.22476066 1392.44628735 -315.79788848 1393.85553642 -318 1395.75 C-318.70125 1396.36359375 -319.4025 1396.9771875 -320.125 1397.609375 C-322 1399 -322 1399 -324 1399 C-324 1399.66 -324 1400.32 -324 1401 C-325.57421875 1402.33203125 -325.57421875 1402.33203125 -327.6875 1403.8125 C-331.1277898 1406.3101624 -334.02351871 1408.95265011 -337 1412 C-338.71759025 1413.61655553 -340.44786032 1415.21969686 -342.1875 1416.8125 C-343.04730469 1417.60269531 -343.90710937 1418.39289063 -344.79296875 1419.20703125 C-347 1421 -347 1421 -349 1421 C-349.33 1421.99 -349.66 1422.98 -350 1424 C-351.4609375 1425.5078125 -351.4609375 1425.5078125 -353.375 1427.125 C-354.09042969 1427.7334375 -354.80585937 1428.341875 -355.54296875 1428.96875 C-359.13428437 1431.93772317 -362.75123283 1434.87436033 -366.38671875 1437.7890625 C-369.07911161 1440.0669315 -371.52450657 1442.48958582 -374 1445 C-375.71600331 1446.61824 -377.44496484 1448.22286505 -379.1875 1449.8125 C-380.04730469 1450.60269531 -380.90710937 1451.39289063 -381.79296875 1452.20703125 C-384 1454 -384 1454 -386 1454 C-386.33 1454.99 -386.66 1455.98 -387 1457 C-388.63671875 1458.6484375 -388.63671875 1458.6484375 -390.6875 1460.375 C-391.76451172 1461.28572266 -391.76451172 1461.28572266 -392.86328125 1462.21484375 C-393.56839844 1462.80394531 -394.27351563 1463.39304688 -395 1464 C-395.59167969 1464.51691406 -396.18335938 1465.03382812 -396.79296875 1465.56640625 C-400.75480769 1469 -400.75480769 1469 -403 1469 C-403.22042969 1469.56847656 -403.44085937 1470.13695313 -403.66796875 1470.72265625 C-405.41363006 1473.70717397 -407.59240623 1475.31369201 -410.3125 1477.4375 C-413.30179438 1479.78244443 -416.06799385 1482.06935568 -418.73046875 1484.78515625 C-421 1487 -421 1487 -423 1487 C-423.33 1487.99 -423.66 1488.98 -424 1490 C-425.63671875 1491.6484375 -425.63671875 1491.6484375 -427.6875 1493.375 C-428.76451172 1494.28572266 -428.76451172 1494.28572266 -429.86328125 1495.21484375 C-430.56839844 1495.80394531 -431.27351563 1496.39304688 -432 1497 C-432.59167969 1497.51691406 -433.18335938 1498.03382812 -433.79296875 1498.56640625 C-437.75480769 1502 -437.75480769 1502 -440 1502 C-440.33 1502.99 -440.66 1503.98 -441 1505 C-442.73768402 1506.56221756 -444.53913218 1508.05443479 -446.375 1509.5 C-450.19392047 1512.48160371 -450.19392047 1512.48160371 -453.7265625 1515.78125 C-455 1517 -455 1517 -457 1517 C-457.33 1517.99 -457.66 1518.98 -458 1520 C-459.67608503 1521.4990539 -461.41561832 1522.92799326 -463.1875 1524.3125 C-466.48624356 1526.93435852 -469.64797072 1529.51746941 -472.5625 1532.5625 C-473.366875 1533.366875 -474.17125 1534.17125 -475 1535 C-475.66 1535 -476.32 1535 -477 1535 C-477.33 1535.99 -477.66 1536.98 -478 1538 C-479.63671875 1539.6484375 -479.63671875 1539.6484375 -481.6875 1541.375 C-482.76451172 1542.28572266 -482.76451172 1542.28572266 -483.86328125 1543.21484375 C-484.56839844 1543.80394531 -485.27351563 1544.39304688 -486 1545 C-486.59167969 1545.51691406 -487.18335938 1546.03382812 -487.79296875 1546.56640625 C-491.75480769 1550 -491.75480769 1550 -494 1550 C-494.33451172 1550.85464844 -494.33451172 1550.85464844 -494.67578125 1551.7265625 C-496.39417765 1554.67672977 -498.50740045 1556.26788725 -501.1875 1558.375 C-502.66669922 1559.55449219 -502.66669922 1559.55449219 -504.17578125 1560.7578125 C-505.10777344 1561.49773437 -506.03976562 1562.23765625 -507 1563 C-510.2218873 1565.66597725 -513.35456404 1568.35456404 -516.3125 1571.3125 C-518.88229606 1573.88229606 -521.50899939 1576.35656821 -524.1875 1578.8125 C-525.04730469 1579.60269531 -525.90710937 1580.39289063 -526.79296875 1581.20703125 C-529 1583 -529 1583 -531 1583 C-531 1583.66 -531 1584.32 -531 1585 C-532.3984375 1586.41015625 -532.3984375 1586.41015625 -534.375 1588.0625 C-537.57546345 1590.77923786 -540.71306063 1593.54335219 -543.8125 1596.375 C-548.26569807 1600.40146194 -552.86791962 1604.20625054 -557.5546875 1607.95703125 C-560.03325564 1609.95573507 -560.03325564 1609.95573507 -562.1953125 1612.26171875 C-564 1614 -564 1614 -566 1614 C-564.69734836 1604.49830572 -562.81509675 1595.3399351 -560.17578125 1586.12109375 C-558.99624797 1581.98409653 -557.90780845 1578.04627953 -557.5625 1573.75 C-557.15775147 1569.21046746 -555.96057201 1565.01740791 -554.72509766 1560.64038086 C-552.6959299 1553.23887873 -551.28034533 1545.71784495 -549.83886719 1538.18359375 C-548.67411492 1532.15067589 -547.33322061 1526.20374586 -545.80981445 1520.25170898 C-544.88845118 1516.55208962 -544.04137989 1512.83799575 -543.2109375 1509.1171875 C-543.06034378 1508.44340561 -542.90975006 1507.76962372 -542.7545929 1507.07542419 C-542.13465898 1504.29620984 -541.51706385 1501.51648421 -540.90136719 1498.73632812 C-540.44430148 1496.67527405 -539.98406375 1494.61494827 -539.5234375 1492.5546875 C-539.25450684 1491.34280762 -538.98557617 1490.13092773 -538.70849609 1488.88232422 C-538 1486 -538 1486 -537 1484 C-536.76190566 1481.6675573 -536.61884134 1479.33620632 -536.4765625 1476.99609375 C-536.07374271 1474.46361193 -535.51146088 1472.49755784 -534.65234375 1470.109375 C-532.36352616 1463.5166747 -531.23248395 1456.6526928 -529.9375 1449.8125 C-529.4306596 1447.15134866 -528.91781502 1444.49154497 -528.40234375 1441.83203125 C-528.06964478 1440.07983276 -528.06964478 1440.07983276 -527.73022461 1438.29223633 C-527.02119246 1435.09554675 -526.06002792 1432.09480656 -525 1429 C-524.48325174 1426.48660138 -524.00670981 1423.96472754 -523.5625 1421.4375 C-522.48487262 1415.45417387 -521.22876967 1409.5483326 -519.8203125 1403.6328125 C-518.578611 1398.13384872 -517.50953079 1392.60126343 -516.44555664 1387.06542969 C-516.28692139 1386.25235352 -516.12828613 1385.43927734 -515.96484375 1384.6015625 C-515.8268335 1383.88307129 -515.68882324 1383.16458008 -515.54663086 1382.42431641 C-515.11213863 1380.49733658 -514.59606888 1378.588791 -514.05249023 1376.68969727 C-512.98209755 1372.93723969 -512.06308274 1369.16608991 -511.1953125 1365.36328125 C-511.0311937 1364.64946793 -510.86707489 1363.9356546 -510.69798279 1363.20021057 C-510.17136358 1360.90482469 -509.64798923 1358.60871544 -509.125 1356.3125 C-508.94669647 1355.53320129 -508.76839294 1354.75390259 -508.58468628 1353.95098877 C-506.26505128 1343.80541024 -504.01728783 1333.65478393 -502.10400391 1323.4230957 C-501.0962357 1318.0962357 -501.0962357 1318.0962357 -500 1317 C-499.686944 1315.57110081 -499.42761741 1314.13044857 -499.1875 1312.6875 C-498.21076155 1307.11134393 -497.15710682 1301.55400072 -496.0625 1296 C-495.82599731 1294.77349731 -495.82599731 1294.77349731 -495.5847168 1293.5222168 C-494.72959657 1289.2037525 -493.74377857 1284.96586344 -492.5546875 1280.7265625 C-490.7703207 1274.33449925 -489.41702428 1267.86950783 -488.0625 1261.375 C-482.53809302 1235.25073135 -482.53809302 1235.25073135 -479.98046875 1226.51953125 C-478.96163642 1222.86228849 -478.23451563 1219.23595131 -477.5625 1215.5 C-477.30405091 1214.08841966 -477.04491979 1212.67696404 -476.78515625 1211.265625 C-476.65512207 1210.55599609 -476.52508789 1209.84636719 -476.39111328 1209.11523438 C-474.21972673 1197.37185541 -471.65625887 1185.79690605 -468.375 1174.3125 C-467.49005836 1171.11763376 -466.83141495 1168.11452537 -466.5625 1164.8125 C-466.20763361 1160.7215201 -465.27176963 1156.91279718 -464.23828125 1152.94140625 C-462.01717261 1144.25453524 -460.09009511 1135.5130853 -458.19360352 1126.7505188 C-457.22125234 1122.26070081 -456.23958489 1117.77292206 -455.2578125 1113.28515625 C-455.06475525 1112.40232468 -454.871698 1111.5194931 -454.67279053 1110.60990906 C-452.98794109 1102.91824988 -451.26393054 1095.23642729 -449.5 1087.5625 C-449.25717285 1086.49854004 -449.0143457 1085.43458008 -448.76416016 1084.33837891 C-448.5429248 1083.38237793 -448.32168945 1082.42637695 -448.09375 1081.44140625 C-447.90490234 1080.62357666 -447.71605469 1079.80574707 -447.52148438 1078.96313477 C-447 1077 -447 1077 -446 1075 C-445.896875 1073.80375 -445.79375 1072.6075 -445.6875 1071.375 C-445.01736742 1064.82026574 -443.19847145 1058.52957474 -441.55273438 1052.16894531 C-438.11762783 1038.68949013 -435.19531569 1025.08166285 -432.5 1011.4375 C-430.77771126 1002.78120503 -428.92876921 994.1755424 -426.5 985.6875 C-425.05822548 980.52865054 -424.07572909 975.31362461 -423.125 970.0480957 C-422.16138424 964.74507224 -421.00551909 959.50673925 -419.76171875 954.26171875 C-418.42233896 948.52642579 -417.21808322 942.76213833 -416 937 C-419.77167412 935.37799694 -423.47114972 934.32969436 -427.47192383 933.41870117 C-428.10583101 933.27316299 -428.7397382 933.12762482 -429.39285469 932.97767639 C-431.49672898 932.49562749 -433.60186072 932.01932201 -435.70703125 931.54296875 C-437.20284977 931.20132902 -438.69858053 930.85930487 -440.19422913 930.516922 C-443.39059135 929.78595305 -446.58749551 929.05742209 -449.78485107 928.33081055 C-454.88310193 927.17208818 -459.98001271 926.00754906 -465.07666016 924.84179688 C-466.79815581 924.44808554 -468.51965239 924.05437827 -470.2411499 923.66067505 C-471.09244225 923.46597752 -471.94373459 923.27127998 -472.82082367 923.07068253 C-475.40766057 922.47925316 -477.99461488 921.88834 -480.581604 921.2975769 C-494.01975539 918.22838625 -507.44988052 915.12571651 -520.875 912 C-525.34885736 910.95920095 -529.82283892 909.91893675 -534.296875 908.87890625 C-535.51873001 908.59485931 -536.74058502 908.31081238 -537.99946594 908.01815796 C-550.48214589 905.11729767 -562.96764027 902.22860377 -575.453125 899.33984375 C-576.55671923 899.08449797 -577.66031345 898.82915218 -578.79734993 898.56606865 C-584.54824881 897.23545564 -590.29916172 895.9049033 -596.05007935 894.57437134 C-655.58970156 880.79918616 -655.58970156 880.79918616 -682.95703125 874.4296875 C-683.89268921 874.21192343 -684.82834717 873.99415936 -685.7923584 873.76979637 C-693.06404352 872.07727229 -700.335608 870.38423014 -707.60707855 868.69078445 C-732.4010967 862.91654486 -757.20459587 857.1863511 -782.02182007 851.51269531 C-798.11644164 847.83200986 -814.18955131 844.07427527 -830.24179077 840.21313477 C-845.53148125 836.53894269 -860.8679373 833.09008085 -876.21682739 829.67269897 C-890.56349956 826.47636719 -904.87250562 823.16395822 -919.14501953 819.65161133 C-927.96961702 817.48111401 -936.81100806 815.41088325 -945.6862793 813.45751953 C-951.79809757 812.10095121 -951.79809757 812.10095121 -954 811 C-953.67 810.01 -953.34 809.02 -953 808 C-952.34 808 -951.68 808 -951 808 C-951 807.34 -951 806.68 -951 806 C-949.38617052 804.54340023 -947.70636784 803.15951049 -946 801.8125 C-941.72424134 798.40292729 -937.58900781 794.91008824 -933.55859375 791.21484375 C-932 790 -932 790 -930 790 C-930 789.34 -930 788.68 -930 788 C-927.8828125 786.0546875 -927.8828125 786.0546875 -925.125 783.875 C-924.22007813 783.15054688 -923.31515625 782.42609375 -922.3828125 781.6796875 C-920 780 -920 780 -918 780 C-918 779.34 -918 778.68 -918 778 C-916.57279591 776.73071202 -915.08016224 775.53461407 -913.5625 774.375 C-909.11928135 770.92407912 -904.93406936 767.29592155 -900.8125 763.46875 C-899 762 -899 762 -897 762 C-897 761.34 -897 760.68 -897 760 C-894.8828125 758.0546875 -894.8828125 758.0546875 -892.125 755.875 C-891.22007813 755.15054688 -890.31515625 754.42609375 -889.3828125 753.6796875 C-887 752 -887 752 -885 752 C-885 751.34 -885 750.68 -885 750 C-883.26608049 748.39365985 -881.461909 746.8624713 -879.625 745.375 C-878.62726563 744.55773438 -877.62953125 743.74046875 -876.6015625 742.8984375 C-874 741 -874 741 -872 741 C-872 740.34 -872 739.68 -872 739 C-870.51261765 737.64617851 -868.95569449 736.36860114 -867.375 735.125 C-862.7356842 731.41594804 -858.18544422 727.6292813 -853.6875 723.75 C-852.00090859 722.2954866 -850.31389357 720.84157407 -848.62255859 719.39257812 C-847.516723 718.44348299 -846.41565843 717.4888072 -845.31884766 716.52929688 C-841.222431 713 -841.222431 713 -839 713 C-839 712.34 -839 711.68 -839 711 C-837.57279591 709.73071202 -836.08016224 708.53461407 -834.5625 707.375 C-830.11928135 703.92407912 -825.93406936 700.29592155 -821.8125 696.46875 C-820 695 -820 695 -818 695 C-818 694.34 -818 693.68 -818 693 C-815.8828125 691.0546875 -815.8828125 691.0546875 -813.125 688.875 C-812.22007812 688.15054688 -811.31515625 687.42609375 -810.3828125 686.6796875 C-808 685 -808 685 -806 685 C-806 684.34 -806 683.68 -806 683 C-804.38617052 681.54340023 -802.70636784 680.15951049 -801 678.8125 C-796.72424134 675.40292729 -792.58900781 671.91008824 -788.55859375 668.21484375 C-787 667 -787 667 -785 667 C-785 666.34 -785 665.68 -785 665 C-784.0409375 664.8453125 -784.0409375 664.8453125 -783.0625 664.6875 C-782.381875 664.460625 -781.70125 664.23375 -781 664 C-780.67 663.01 -780.34 662.02 -780 661 C-778.34731229 659.49885632 -776.62793314 658.07026333 -774.875 656.6875 C-771.49771441 653.99972525 -768.16501846 651.30337263 -764.9375 648.4375 C-762 646 -762 646 -760 646 C-760 645.34 -760 644.68 -760 644 C-758.57279591 642.73071202 -757.08016224 641.53461407 -755.5625 640.375 C-751.11928135 636.92407912 -746.93406936 633.29592155 -742.8125 629.46875 C-741 628 -741 628 -739 628 C-739 627.34 -739 626.68 -739 626 C-734.52941176 622 -734.52941176 622 -732 622 C-732 621.34 -732 620.68 -732 620 C-730.35 619.34 -728.7 618.68 -727 618 C-727 617.34 -727 616.68 -727 616 C-725.38617052 614.54340023 -723.70636784 613.15951049 -722 611.8125 C-717.72424134 608.40292729 -713.58900781 604.91008824 -709.55859375 601.21484375 C-708 600 -708 600 -706 600 C-706 599.34 -706 598.68 -706 598 C-703.92997383 596.25936486 -701.84803566 594.62151657 -699.6875 593 C-693.13000487 587.97514424 -687.06549606 582.61134078 -681 577 C-675.40315315 572 -675.40315315 572 -673 572 C-673 571.34 -673 570.68 -673 570 C-671.26953125 568.44140625 -671.26953125 568.44140625 -668.8125 566.5625 C-663.83296855 562.69428029 -659.03679484 558.65649002 -654.29223633 554.50610352 C-650.21841303 551 -650.21841303 551 -648 551 C-648 550.34 -648 549.68 -648 549 C-646.41005885 547.54082037 -644.75012428 546.15750645 -643.0625 544.8125 C-641.56009766 543.60787109 -641.56009766 543.60787109 -640.02734375 542.37890625 C-637.40575047 540.31884134 -634.77017373 538.2796021 -632.125 536.25 C-629.6225618 534.32848495 -627.309847 532.40088229 -625.125 530.125 C-623 528 -623 528 -620 527 C-620 526.34 -620 525.68 -620 525 C-618.35 524.34 -616.7 523.68 -615 523 C-615 522.34 -615 521.68 -615 521 C-613.57279591 519.73071202 -612.08016224 518.53461407 -610.5625 517.375 C-606.11928135 513.92407912 -601.93406936 510.29592155 -597.8125 506.46875 C-596 505 -596 505 -594 505 C-594 504.34 -594 503.68 -594 503 C-591.92995849 501.25935196 -589.84805039 499.62152705 -587.6875 498 C-582.06391718 493.6911966 -576.812566 489.1852463 -571.61328125 484.37109375 C-560.18286656 474 -560.18286656 474 -557 474 C-556.67 473.01 -556.34 472.02 -556 471 C-554.34731229 469.49885632 -552.62793314 468.07026333 -550.875 466.6875 C-547.49771441 463.99972525 -544.16501846 461.30337263 -540.9375 458.4375 C-538 456 -538 456 -536 456 C-536 455.34 -536 454.68 -536 454 C-533.8828125 452.0546875 -533.8828125 452.0546875 -531.125 449.875 C-530.22007812 449.15054688 -529.31515625 448.42609375 -528.3828125 447.6796875 C-526 446 -526 446 -524 446 C-523.690625 445.13375 -523.690625 445.13375 -523.375 444.25 C-521.49800315 441.17855061 -519.00679355 439.94557229 -516 438 C-515.113125 437.113125 -514.22625 436.22625 -513.3125 435.3125 C-511 433 -511 433 -508 432 C-508 431.34 -508 430.68 -508 430 C-506.35 429.34 -504.7 428.68 -503 428 C-503 427.34 -503 426.68 -503 426 C-501.57279591 424.73071202 -500.08016224 423.53461407 -498.5625 422.375 C-494.11928135 418.92407912 -489.93406936 415.29592155 -485.8125 411.46875 C-484 410 -484 410 -482 410 C-482 409.34 -482 408.68 -482 408 C-481.360625 407.896875 -480.72125 407.79375 -480.0625 407.6875 C-479.0415625 407.3471875 -479.0415625 407.3471875 -478 407 C-477.67 406.01 -477.34 405.02 -477 404 C-474.98828125 402.16015625 -474.98828125 402.16015625 -472.3125 400.0625 C-468.89494376 397.34460094 -465.52026554 394.60927118 -462.2265625 391.7421875 C-461.59709717 391.19425537 -460.96763184 390.64632324 -460.3190918 390.08178711 C-459.0753477 388.99490291 -457.83456306 387.90462179 -456.59692383 386.81079102 C-452.21881856 383 -452.21881856 383 -450 383 C-449.67 382.01 -449.34 381.02 -449 380 C-447.66666667 379.66666667 -446.33333333 379.33333333 -445 379 C-444.67 378.01 -444.34 377.02 -444 376 C-442.34731229 374.49885632 -440.62793314 373.07026333 -438.875 371.6875 C-435.49771441 368.99972525 -432.16501846 366.30337263 -428.9375 363.4375 C-426 361 -426 361 -424 361 C-424 360.34 -424 359.68 -424 359 C-419.52941176 355 -419.52941176 355 -417 355 C-417 354.34 -417 353.68 -417 353 C-412.52941176 349 -412.52941176 349 -410 349 C-410 348.34 -410 347.68 -410 347 C-408.00715862 345.6559907 -406.00580329 344.32458708 -404 343 C-402.31237149 341.3545622 -400.6459651 339.68711423 -399 338 C-393.49453552 333 -393.49453552 333 -391 333 C-391 332.34 -391 331.68 -391 331 C-389.1640625 329.3359375 -389.1640625 329.3359375 -386.625 327.375 C-385.71878906 326.66730469 -384.81257813 325.95960938 -383.87890625 325.23046875 C-382.45384766 324.12638672 -382.45384766 324.12638672 -381 323 C-379.18442619 321.56638421 -377.37177457 320.1290575 -375.5625 318.6875 C-374.75941406 318.05199219 -373.95632813 317.41648437 -373.12890625 316.76171875 C-371.01092078 315.07753308 -371.01092078 315.07753308 -369.33984375 313.26953125 C-368 312 -368 312 -366 312 C-365.67 311.01 -365.34 310.02 -365 309 C-362.98828125 307.16015625 -362.98828125 307.16015625 -360.3125 305.0625 C-356.89494376 302.34460094 -353.52026554 299.60927118 -350.2265625 296.7421875 C-349.59709717 296.19425537 -348.96763184 295.64632324 -348.3190918 295.08178711 C-347.0753477 293.99490291 -345.83456306 292.90462179 -344.59692383 291.81079102 C-340.21881856 288 -340.21881856 288 -338 288 C-338 287.34 -338 286.68 -338 286 C-337.21625 285.7525 -336.4325 285.505 -335.625 285.25 C-332.90126024 284.28320084 -332.90126024 284.28320084 -332.0625 282.125 C-330.49542979 278.99085957 -327.91028984 277.88312872 -325 276 C-324.113125 275.113125 -323.22625 274.22625 -322.3125 273.3125 C-320 271 -320 271 -317 270 C-317 269.34 -317 268.68 -317 268 C-314.8828125 266.0546875 -314.8828125 266.0546875 -312.125 263.875 C-311.22007812 263.15054688 -310.31515625 262.42609375 -309.3828125 261.6796875 C-307 260 -307 260 -305 260 C-305 259.34 -305 258.68 -305 258 C-302.96959598 256.32038321 -300.93525487 254.74235497 -298.8125 253.1875 C-294.53847437 250.03796717 -290.70469063 246.83199958 -287 243 C-281.5308642 238 -281.5308642 238 -279 238 C-279 237.34 -279 236.68 -279 236 C-277.55235738 234.70958086 -276.03910851 233.49232866 -274.5 232.3125 C-270.37453515 229.10706069 -266.44150928 225.78236918 -262.59375 222.25 C-261 221 -261 221 -259 221 C-259 220.34 -259 219.68 -259 219 C-257.51261765 217.64617851 -255.95569449 216.36860114 -254.375 215.125 C-249.7356842 211.41594804 -245.18544422 207.6292813 -240.6875 203.75 C-239.00090859 202.2954866 -237.31389357 200.84157407 -235.62255859 199.39257812 C-234.516723 198.44348299 -233.41565843 197.4888072 -232.31884766 196.52929688 C-228.222431 193 -228.222431 193 -226 193 C-226 192.34 -226 191.68 -226 191 C-225.195625 190.731875 -224.39125 190.46375 -223.5625 190.1875 C-222.716875 189.795625 -221.87125 189.40375 -221 189 C-220.67 188.01 -220.34 187.02 -220 186 C-218.546875 184.7890625 -218.546875 184.7890625 -216.75 183.625 C-214.25927175 181.94069606 -212.41117375 180.41117375 -210.25 178.25 C-208 176 -208 176 -205 175 C-205 174.34 -205 173.68 -205 173 C-202.8828125 171.0546875 -202.8828125 171.0546875 -200.125 168.875 C-198.76761719 167.78832031 -198.76761719 167.78832031 -197.3828125 166.6796875 C-195 165 -195 165 -193 165 C-193 164.34 -193 163.68 -193 163 C-190.90937476 161.23772945 -188.8078577 159.57856324 -186.625 157.9375 C-181.11423617 153.72169556 -175.93547769 149.35125457 -170.890625 144.58203125 C-169 143 -169 143 -167 143 C-167 142.34 -167 141.68 -167 141 C-165.55235738 139.70958086 -164.03910851 138.49232866 -162.5 137.3125 C-158.37453515 134.10706069 -154.44150928 130.78236918 -150.59375 127.25 C-149 126 -149 126 -147 126 C-147 125.34 -147 124.68 -147 124 C-145.51261765 122.64617851 -143.95569449 121.36860114 -142.375 120.125 C-137.7356842 116.41594804 -133.18544422 112.6292813 -128.6875 108.75 C-127.00090859 107.2954866 -125.31389357 105.84157407 -123.62255859 104.39257812 C-122.516723 103.44348299 -121.41565843 102.4888072 -120.31884766 101.52929688 C-116.222431 98 -116.222431 98 -114 98 C-114 97.34 -114 96.68 -114 96 C-112.35 95.34 -110.7 94.68 -109 94 C-109 93.34 -109 92.68 -109 92 C-107.42578125 90.66796875 -107.42578125 90.66796875 -105.3125 89.1875 C-102.67721549 87.28786028 -100.50214644 85.50214644 -98.1875 83.1875 C-96 81 -96 81 -93 80 C-93 79.34 -93 78.68 -93 78 C-90.8828125 76.0546875 -90.8828125 76.0546875 -88.125 73.875 C-86.76761719 72.78832031 -86.76761719 72.78832031 -85.3828125 71.6796875 C-83 70 -83 70 -81 70 C-81 69.34 -81 68.68 -81 68 C-79.3046875 66.4765625 -79.3046875 66.4765625 -76.875 64.625 C-72.54693089 61.24922818 -68.34128645 57.77274017 -64.1875 54.1875 C-62.99226734 53.15745944 -61.79695421 52.12751223 -60.6015625 51.09765625 C-59.70872559 50.32832764 -59.70872559 50.32832764 -58.79785156 49.54345703 C-55.35853631 46.59080209 -51.89408058 43.66781541 -48.42724609 40.74755859 C-45.52578996 38.30151632 -42.65816119 35.82303167 -39.8125 33.3125 C-37 31 -37 31 -35 31 C-35 30.34 -35 29.68 -35 29 C-33.57279591 27.73071202 -32.08016224 26.53461407 -30.5625 25.375 C-26.11928135 21.92407912 -21.93406936 18.29592155 -17.8125 14.46875 C-16 13 -16 13 -14 13 C-14 12.34 -14 11.68 -14 11 C-11.8828125 9.0546875 -11.8828125 9.0546875 -9.125 6.875 C-7.76761719 5.78832031 -7.76761719 5.78832031 -6.3828125 4.6796875 C-4 3 -4 3 -2 3 C-2 2.34 -2 1.68 -2 1 C-1.34 0.67 -0.68 0.34 0 0 Z " fill="#4F39F6" transform="translate(2047,2834)"/>
<path d="M0 0 C37.76686712 -0.06894678 75.53372463 -0.12167022 113.30064216 -0.15319599 C117.77822769 -0.15694727 122.25581309 -0.16083032 126.73339844 -0.16479492 C127.62465493 -0.16558185 128.51591142 -0.16636878 129.43417569 -0.16717956 C143.7895475 -0.18016743 158.14488258 -0.20378395 172.50023274 -0.23145839 C187.27417676 -0.25969829 202.04810178 -0.27621511 216.82207167 -0.28226548 C225.90894903 -0.28634381 234.99572251 -0.29913404 244.08256783 -0.3237494 C250.34774304 -0.33983725 256.61286605 -0.34434951 262.87806033 -0.34050413 C266.47111596 -0.33861757 270.06399264 -0.34111234 273.65701485 -0.35761642 C288.92141716 -0.42412564 304.00083905 0.04648933 319.19863892 1.40800476 C319.90687999 1.47141183 320.61512107 1.53481891 321.344824 1.6001474 C367.05867426 5.77691787 411.12166388 19.49966464 441.50488281 55.79785156 C466.35503685 86.78221748 475.01656332 125.91422975 471 165 C466.59979811 198.05403647 451.24731113 226.60159023 424.83300781 247.18920898 C402.39185312 264.00214121 376.65532327 273.15388725 349.79833984 280.24121094 C345.50531687 281.40529359 341.25123387 282.69255718 337 284 C337.69859131 284.23074219 338.39718262 284.46148438 339.11694336 284.69921875 C377.92333202 297.59962618 413.7768943 315.92520747 433.25 353.8125 C449.83197512 387.62696146 448.92975567 429.79778598 437 465 C428.79452863 487.174846 417.08231664 506.60823217 400.9375 523.90625 C399.24246296 525.73798357 397.68280791 527.61524012 396.125 529.5625 C392.0207199 534.37909318 386.97222676 538.12746519 382 542 C381.22527344 542.63679688 380.45054688 543.27359375 379.65234375 543.9296875 C331.01136779 582.05155809 259.50074779 584.19495876 200.58891726 584.11606562 C196.4910359 584.11169979 192.39315586 584.11321184 188.29527283 584.1139679 C181.21558628 584.11448928 174.13590903 584.11138297 167.05622482 584.10573006 C156.82050716 584.09756252 146.58479394 584.09499448 136.34907337 584.09374207 C119.73759585 584.09155976 103.12612327 584.08492204 86.51464844 584.07543945 C70.38932317 584.06624402 54.26399924 584.05917364 38.13867188 584.05493164 C37.14275738 584.05466892 36.14684288 584.05440619 35.12074916 584.05413551 C30.12395672 584.05283036 25.12716427 584.05156668 20.13037181 584.05032361 C-21.24642223 584.03997658 -62.62321083 584.02238073 -104 584 C-103.51933067 577.6333353 -103.02447103 571.32832745 -101.88937378 565.0385437 C-101.55549888 563.16487625 -101.55549888 563.16487625 -101.21487904 561.25335693 C-100.96870774 559.90440124 -100.72243587 558.55546391 -100.47607422 557.20654297 C-100.21271862 555.74083992 -99.94986264 554.27504702 -99.68745708 552.80917358 C-98.96840999 548.80039477 -98.24245334 544.7928942 -97.51537251 540.78556585 C-96.72675222 536.43170208 -95.94480585 532.07663933 -95.16209412 527.72171021 C-93.79573568 520.12423106 -92.4254721 512.52746478 -91.05264282 504.93115234 C-88.83925423 492.68304124 -86.6341534 480.43344521 -84.43041992 468.18359375 C-83.66462176 463.92718052 -82.8987882 459.67077367 -82.13294983 455.41436768 C-81.94089382 454.34690473 -81.7488378 453.27944178 -81.55096191 452.17963147 C-80.16141841 444.45690693 -78.7708264 436.73437159 -77.37986755 429.01190186 C-69.143128 383.2787115 -60.95801872 337.53631626 -52.77893066 291.79278564 C-50.52134043 279.16669882 -48.26240037 266.54085372 -46.00323129 253.91504931 C-38.50548955 212.01145475 -31.01467187 170.10664494 -23.54958743 128.19721889 C-22.28135042 121.07728958 -21.012663 113.95744067 -19.7436676 106.83764648 C-19.39220213 104.86565664 -19.04073722 102.89366669 -18.68927288 100.92167664 C-18.17116725 98.01470519 -17.6530551 95.1077349 -17.13491595 92.20076942 C-15.14840509 81.05536796 -13.1639304 69.90960846 -11.18296307 58.76322031 C-9.97305786 51.95613744 -8.76105281 45.14943074 -7.54733497 38.34302664 C-6.72214797 33.71483814 -5.89950825 29.08620738 -5.07891697 24.45720196 C-4.47128672 21.03417261 -3.8596304 17.61186555 -3.24853516 14.18945312 C-3.03277989 12.9676535 -2.81702463 11.74585388 -2.59473133 10.48703003 C-2.39739242 9.38630157 -2.2000535 8.28557312 -1.99673462 7.15148926 C-1.82708002 6.19758553 -1.65742542 5.24368179 -1.48262978 4.26087189 C-1 2 -1 2 0 0 Z M127 99 C121.39045869 129.4000632 115.8509676 159.81147629 110.42858887 190.2454834 C109.75377835 194.03049441 109.07735327 197.81521629 108.40096188 201.59994507 C107.74407762 205.27645333 107.08803862 208.95311199 106.4322834 212.62982178 C106.12271097 214.36509378 105.81290351 216.10032388 105.50285149 217.83551025 C105.07909477 220.20789798 104.65644757 222.58048057 104.23413086 224.953125 C104.04494835 226.01045334 104.04494835 226.01045334 103.85194397 227.08914185 C103.25188609 230.02646549 103.25188609 230.02646549 103 233 C120.35223244 233.04700119 137.70444464 233.08212514 155.05672646 233.10362434 C163.11612722 233.11387809 171.17548813 233.12782349 179.23486328 233.15087891 C186.2704329 233.1709957 193.30597362 233.18375913 200.34157121 233.18817699 C204.05684836 233.19075389 207.77204293 233.19668266 211.48729324 233.21146011 C260.65937249 233.94846012 260.65937249 233.94846012 302.375 210.7578125 C314.90206135 197.84986077 319.60316123 181.8165671 319.4375 164.125 C319.42992676 162.98675781 319.42235352 161.84851562 319.41455078 160.67578125 C319.16601956 147.97710573 316.5844017 137.41969205 309 127 C308.44828125 126.24203125 307.8965625 125.4840625 307.328125 124.703125 C293.31222411 107.33299142 269.82299644 101.5164057 248.61346626 99.21116829 C243.76456292 98.8193765 238.91627312 98.87029548 234.05444336 98.88647461 C232.31145966 98.88625557 232.31145966 98.88625557 230.53326416 98.8860321 C226.71877124 98.88672495 222.90432806 98.89448781 219.08984375 98.90234375 C216.43469663 98.90421016 213.77955221 98.90568225 211.12440491 98.90663147 C204.86669475 98.90972867 198.60900224 98.91792017 192.35129982 98.92798096 C185.22184591 98.93919234 178.09239111 98.94466517 170.96293056 98.94967639 C156.3086113 98.96010427 141.6543059 98.97767226 127 99 Z M85 334 C79.27775116 363.64253474 73.97143901 393.35584767 68.71166992 423.08343506 C67.83236884 428.04979966 66.95079442 433.01575965 66.06919193 437.98171616 C65.21836028 442.77513915 64.36845547 447.56872607 63.51888847 452.36237335 C63.11437001 454.64468939 62.70966364 456.92697214 62.3047657 459.20922089 C61.74664356 462.35644695 61.18966642 465.50387335 60.63305664 468.65136719 C60.46638992 469.59017227 60.29972321 470.52897736 60.12800598 471.49623108 C59.34540776 475.22728728 59.34540776 475.22728728 59 479 C76.35223244 479.04700119 93.70444464 479.08212514 111.05672646 479.10362434 C119.11612722 479.11387809 127.17548813 479.12782349 135.23486328 479.15087891 C142.2704329 479.1709957 149.30597362 479.18375913 156.34157121 479.18817699 C160.05684836 479.19075389 163.77204293 479.19668266 167.48729324 479.21146011 C204.34363956 479.35208933 244.26728035 478.92338178 272.37890625 451.62109375 C273.24386719 450.75613281 274.10882813 449.89117188 275 449 C275.60714844 448.39285156 276.21429688 447.78570313 276.83984375 447.16015625 C290.19529431 432.67108655 292.90954256 415.95393947 292.3828125 397.02734375 C291.55769323 380.35630186 285.09383302 366.50196518 273 355 C262.31853617 345.77255743 249.19670481 341.18077524 235.625 338.1875 C234.74175049 337.99269043 233.85850098 337.79788086 232.94848633 337.59716797 C214.61028278 333.86340511 196.41786898 333.72778201 177.7734375 333.8046875 C175.08631055 333.80842571 172.39919433 333.81136749 169.71206665 333.81326294 C163.41213139 333.81942259 157.11226745 333.83575678 150.81236327 333.85596192 C143.62708663 333.8784951 136.44180617 333.88935765 129.25650287 333.89935279 C114.50429915 333.92012948 99.75215084 333.95519532 85 334 Z " fill="#4F39F6" transform="translate(3963,3324)"/>
<path d="M0 0 C1.18363129 -0.00067474 2.36726257 -0.00134949 3.58676147 -0.00204468 C57.71982477 0.0469835 113.67246286 8.76053715 153.8125 48.125 C174.38615387 68.90538157 184.17069489 96.24404491 184.61328125 125.17578125 C184.5009571 147.46276457 180.19495011 170.0561022 176.57421875 191.98046875 C176.38272499 193.14692869 176.19123123 194.31338863 175.99393463 195.51519585 C172.76674732 215.1386076 169.31672603 234.71833074 165.765625 254.28515625 C165.64327822 254.9596036 165.52093145 255.63405095 165.3948772 256.3289361 C163.13953059 268.75929848 160.87330859 281.18768148 158.59504652 293.6138643 C146.79128278 353.14287181 146.79128278 353.14287181 142.375 413.5 C142.37113281 414.49128906 142.36726563 415.48257813 142.36328125 416.50390625 C142.37468666 425.4799627 142.97022052 434.24374886 143.5 443.25 C100.6 443.25 57.7 443.25 13.5 443.25 C12.30262431 436.06574588 12.26050106 429.06600716 12.25 421.8125 C12.24766357 421.08122894 12.24532715 420.34995789 12.24291992 419.5965271 C12.22816204 407.32819735 13.27402322 395.49125273 15.21875 383.36962891 C15.57954893 380.65048283 15.6075524 377.9881049 15.5 375.25 C14.81035156 376.34957031 14.12070313 377.44914062 13.41015625 378.58203125 C7.91531312 387.26162053 2.29628657 395.51670359 -4.5 403.25 C-5.29019531 404.17296875 -6.08039062 405.0959375 -6.89453125 406.046875 C-33.24279314 436.08804289 -72.30136424 450.83124619 -111.43481445 454.0690918 C-117.72347849 454.4402507 -124.01484555 454.49469274 -130.3125 454.5 C-131.39957245 454.50101212 -131.39957245 454.50101212 -132.50860596 454.50204468 C-169.54234578 454.4475818 -205.20553191 445.02990366 -233.5 420.25 C-234.66789062 419.28126953 -234.66789062 419.28126953 -235.859375 418.29296875 C-255.51683956 401.65190824 -268.30567517 376.72315133 -271.5 351.25 C-271.81954324 346.10372792 -271.89001601 340.96716295 -271.875 335.8125 C-271.87445618 335.1089035 -271.87391235 334.40530701 -271.87335205 333.6803894 C-271.83138547 321.83591079 -270.83100562 310.65709895 -267.5 299.25 C-267.29101074 298.5182959 -267.08202148 297.7865918 -266.86669922 297.03271484 C-257.90613187 266.67417842 -235.74406609 241.33320006 -209.5 224.25 C-208.91750488 223.86585938 -208.33500977 223.48171875 -207.73486328 223.0859375 C-141.82357285 180.13128106 -50.43540092 174.73949773 26.03393555 170.8449707 C27.31824463 170.77882568 28.60255371 170.71268066 29.92578125 170.64453125 C31.58734253 170.56489136 31.58734253 170.56489136 33.2824707 170.48364258 C36.72110038 170.23394468 40.09331922 169.77420829 43.5 169.25 C44.48532735 166.04352624 45.46214519 162.83451996 46.4375 159.625 C46.71529297 158.72136719 46.99308594 157.81773437 47.27929688 156.88671875 C52.3462639 140.15962278 52.73588415 122.32229988 44.75 106.5 C37.49127994 94.03624653 26.05338558 87.86496739 12.41015625 83.9765625 C-12.19933734 77.83244732 -40.58430225 82.23843169 -62.375 95.0625 C-68.30158518 98.91331339 -73.50282674 103.26170272 -78.5 108.25 C-79.11230469 108.85070313 -79.72460938 109.45140625 -80.35546875 110.0703125 C-89.95236062 120.21622564 -95.92445799 133.61090959 -101.5 146.25 C-108.75161696 146.40751315 -115.80313636 145.94053958 -123.00830078 145.1484375 C-124.11191452 145.03139465 -125.21552826 144.91435181 -126.35258484 144.79376221 C-129.96737935 144.40915575 -133.58132775 144.01713609 -137.1953125 143.625 C-139.71445894 143.35549753 -142.23365532 143.08646148 -144.75289917 142.81787109 C-150.68516257 142.18426837 -156.61691139 141.54599511 -162.54842365 140.90540886 C-169.30745051 140.17572079 -176.06712008 139.45207499 -182.82684731 138.72890854 C-196.71861802 137.24260918 -210.60957425 135.74881306 -224.5 134.25 C-224.1917571 132.80941715 -223.88025541 131.36953134 -223.56738281 129.9299469 C-223.39426575 129.12803704 -223.22114868 128.32612719 -223.04278564 127.49991703 C-222.39167341 124.80097222 -221.43988048 122.4087774 -220.25 119.90234375 C-219.81163818 118.97534668 -219.37327637 118.04834961 -218.92163086 117.09326172 C-218.45249268 116.13436035 -217.98335449 115.17545898 -217.5 114.1875 C-217.01088135 113.17961426 -216.5217627 112.17172852 -216.01782227 111.13330078 C-206.76842565 92.39585194 -194.86481765 76.34052909 -180.5 61.25 C-179.46166016 60.11498047 -179.46166016 60.11498047 -178.40234375 58.95703125 C-133.68576831 11.65568267 -61.87453398 0.03161375 0 0 Z M-111.3125 273.5 C-125.81397485 288.65678931 -130.0477048 305.40268141 -129.77734375 325.703125 C-129.28835339 340.13442251 -122.73956656 352.02479296 -112.41015625 361.91796875 C-102.16055553 370.13140718 -90.32038679 373.6556739 -77.3125 373.5625 C-76.07584595 373.55512817 -76.07584595 373.55512817 -74.81420898 373.54760742 C-62.87279166 373.32177323 -52.24694229 370.38920537 -41.5 365.25 C-40.57445313 364.80785156 -39.64890625 364.36570312 -38.6953125 363.91015625 C-6.24748784 347.31856319 12.66433951 313.02263518 23.45507812 279.67529297 C30.91153056 256.38082275 30.91153056 256.38082275 33.5 232.25 C-14.44537796 232.25 -74.89747952 239.03578419 -111.3125 273.5 Z M16.5 371.25 C17.5 373.25 17.5 373.25 17.5 373.25 Z " fill="#4F39F6" transform="translate(3109.5,3464.75)"/>
<path d="M0 0 C44.88 0 89.76 0 136 0 C133.70274032 16.08081775 133.70274032 16.08081775 132.48699951 22.78269958 C132.3481607 23.55971586 132.20932189 24.33673213 132.06627584 25.13729435 C131.60998737 27.68757467 131.15022808 30.2372156 130.69042969 32.78686523 C130.3579603 34.64098331 130.02571178 36.49514099 129.69366455 38.34933472 C128.98035701 42.32979968 128.26549672 46.30998143 127.54940033 50.2899456 C126.40034927 56.67625686 125.25482395 63.06319771 124.10968018 69.45021057 C122.27962013 79.65493732 120.4471893 89.85923672 118.61377454 100.06336123 C114.79618265 121.31112107 110.98364456 142.55978872 107.171875 163.80859375 C106.97689737 164.89546714 106.78191975 165.98234054 106.58103371 167.10214949 C101.14923596 197.38221875 95.72857126 227.6642383 90.34935856 257.9536984 C89.89509065 260.51002643 89.44007219 263.06621976 88.98482513 265.62237358 C88.28319089 269.5625306 87.58359527 273.50304394 86.88568211 277.44386172 C86.63381117 278.86436433 86.38127767 280.28474966 86.12800503 281.70500302 C81.31868933 306.99203294 81.31868933 306.99203294 88.75 331 C94.5915638 338.83659418 101.9548786 341.74535216 111.3125 343.6875 C133.27403511 345.54864704 151.64523964 339.16568027 169 326 C170.01513672 325.24589844 170.01513672 325.24589844 171.05078125 324.4765625 C203.03714347 299.03453646 210.19811226 250.62275343 217.23046875 213.078125 C217.43722733 211.97921181 217.6439859 210.88029861 217.85700989 209.74808502 C224.99084377 171.78994361 231.68609569 133.7498371 238.46875763 95.72780609 C240.93634033 81.89611044 243.40561353 68.06471753 245.87850475 54.23396993 C246.8648947 48.716416 247.84938096 43.19852704 248.83229923 37.68035364 C249.43978327 34.27198216 250.04882612 30.86389054 250.6582737 27.45586967 C250.93869785 25.88586885 251.21847407 24.31575212 251.4975338 22.74550819 C251.87989707 20.59448562 252.26462813 18.44389881 252.64990234 16.293396 C252.97056168 14.49545404 252.97056168 14.49545404 253.29769897 12.66119003 C254.1106805 8.4230076 255.06384694 4.21268878 256 0 C300.55 0 345.1 0 391 0 C389.87500874 12.37490385 389.87500874 12.37490385 388.94511414 17.53799438 C388.73501017 18.71781985 388.5249062 19.89764532 388.30843544 21.11322308 C388.07863173 22.37604012 387.84882801 23.63885717 387.61206055 24.93994141 C387.36374208 26.32402554 387.115843 27.70818496 386.86832237 29.09241199 C386.19008359 32.87856954 385.5060104 36.66365258 384.82097936 40.44858623 C384.07753471 44.56242895 383.33968923 48.67727623 382.60118103 52.79200745 C381.31393875 59.95996969 380.02335478 67.12732365 378.73052979 74.29428101 C376.66570277 85.74131468 374.60750125 97.18953449 372.55029297 108.63793945 C371.83726099 112.60555255 371.12417868 116.5731566 370.41107178 120.54075623 C370.23210405 121.53651958 370.05313632 122.53228293 369.86874533 123.55822092 C368.57327844 130.76556043 367.27685116 137.97272682 365.9800415 145.17982483 C360.38713152 176.26434993 354.81195034 207.35202627 349.24609375 238.44140625 C348.9435877 240.13105893 348.9435877 240.13105893 348.63497043 241.854846 C346.41951099 254.22933338 344.20436589 266.603877 341.9894104 278.97845459 C339.66746298 291.95072357 337.34499535 304.92289935 335.0222168 317.89501953 C334.83756398 318.92629502 334.65291117 319.95757051 334.46266282 321.02009678 C332.50700045 331.94222766 330.55072787 342.86424861 328.59266663 353.78594971 C328.094944 356.56229161 327.59722554 359.33863426 327.09951222 362.11497784 C326.77808134 363.90795268 326.45663442 365.70092465 326.13517082 367.49389362 C324.31710297 377.6349606 322.50359709 387.77681342 320.69986153 397.92043972 C319.83515568 402.78155345 318.96780111 407.64219208 318.09992599 412.50274086 C317.72118767 414.62840889 317.34384786 416.75432666 316.96803665 418.88051414 C316.47612138 421.66356589 315.97964845 424.44576389 315.48193359 427.2277832 C315.34310635 428.02112123 315.2042791 428.81445927 315.06124496 429.63183784 C314.11403888 434.88596112 314.11403888 434.88596112 313 436 C311.393108 436.09600136 309.78198231 436.12187889 308.17222595 436.12025452 C307.12749619 436.12162918 306.08276642 436.12300385 305.00637817 436.12442017 C303.27253372 436.11902725 303.27253372 436.11902725 301.50366211 436.11352539 C300.29407333 436.11367142 299.08448456 436.11381744 297.83824158 436.1139679 C294.51193649 436.11338893 291.18569281 436.10835973 287.8593986 436.10139394 C284.38670071 436.09515978 280.91400207 436.09455655 277.44129944 436.09336853 C270.86103807 436.0902554 264.28079324 436.08204225 257.70053917 436.07201904 C250.21093888 436.06085734 242.72133782 436.05534731 235.2317313 436.05032361 C219.82114461 436.03985962 204.41057443 436.02226053 189 436 C190.24623574 426.85687018 191.69677444 417.7788448 193.3828125 408.70703125 C193.60194305 407.51317307 193.82107361 406.31931488 194.04684448 405.08927917 C194.73696091 401.32986834 195.43054486 397.57111161 196.125 393.8125 C197.047289 388.81955985 197.96610187 383.82599822 198.8828125 378.83203125 C199.09527618 377.68837601 199.30773987 376.54472076 199.52664185 375.3664093 C199.72039398 374.31068222 199.91414612 373.25495514 200.11376953 372.16723633 C200.28538605 371.23905594 200.45700256 370.31087555 200.63381958 369.35456848 C201.07683593 366.90308443 201.07683593 366.90308443 201 364 C200.38253906 364.88300781 199.76507813 365.76601562 199.12890625 366.67578125 C191.10938462 378.07068363 182.50472691 388.79663504 173 399 C172.27683594 399.78890625 171.55367187 400.5778125 170.80859375 401.390625 C144.02304296 429.490526 106.07345345 445.17657523 67.48046875 446.125 C34.42413973 446.66896491 4.17046134 439.04933509 -22 418 C-22.74121094 417.41347656 -23.48242188 416.82695312 -24.24609375 416.22265625 C-44.14428624 399.73779892 -53.29279371 373.86235302 -55.75 348.8125 C-55.85581434 346.87609766 -55.9384662 344.93831481 -56 343 C-56.0515625 341.92234375 -56.103125 340.8446875 -56.15625 339.734375 C-56.66581554 319.77639125 -53.43535387 299.80334423 -50.21484375 280.16015625 C-50.07063869 279.27594246 -49.92643364 278.39172867 -49.77785873 277.48072052 C-44.8841138 247.57503749 -39.39570698 217.76773665 -34.01362967 187.94701606 C-32.29451551 178.42098722 -30.58021748 168.89409253 -28.8659668 159.3671875 C-28.23883887 155.88219791 -27.61168204 152.39721352 -26.98451233 148.91223145 C-26.82978091 148.05241684 -26.67504948 147.19260224 -26.51562923 146.30673265 C-25.42927652 140.27042614 -24.34221628 134.23424729 -23.25486755 128.19812012 C-19.62867049 108.06684077 -16.01399395 87.93356868 -12.41796875 67.796875 C-12.21304306 66.64962196 -12.00811737 65.50236893 -11.79698181 64.32035065 C-10.11040768 54.87793783 -8.42458654 45.43539112 -6.74176025 35.99230957 C-5.92166253 31.39038318 -5.10038999 26.78866804 -4.27822304 22.1871109 C-3.98559764 20.54779426 -3.69347478 18.90838782 -3.40190697 17.26888275 C-3.01241893 15.07877213 -2.621283 12.88896211 -2.22973633 10.69921875 C-1.90674309 8.88683716 -1.90674309 8.88683716 -1.57722473 7.0378418 C-1.12844094 4.67596418 -0.58308877 2.33235509 0 0 Z " fill="#4F39F6" transform="translate(4539,3472)"/>
<path d="M0 0 C0.73798828 -0.00067474 1.47597656 -0.00134949 2.23632812 -0.00204468 C13.45089607 0.01424495 24.21262864 0.50161891 35.125 3.25 C35.82399414 3.41628906 36.52298828 3.58257813 37.24316406 3.75390625 C65.8167088 10.69484829 92.23142362 28.77887379 107.93359375 53.78540039 C130.15163425 90.51955798 125.72517703 129.79904319 119.44921875 170.47265625 C119.23651777 171.85127366 119.23651777 171.85127366 119.01951981 173.25774193 C113.82998036 206.61770818 107.5792561 239.81038233 101.54900962 273.02592731 C99.84501262 282.41285844 98.14702789 291.80087361 96.44965887 301.18900514 C94.2853184 313.15984658 92.11995475 325.13049996 89.94891357 337.10012817 C86.86742683 354.09061527 83.79175292 371.0820665 80.7418983 388.07826436 C80.27680087 390.66952841 79.81130208 393.26072 79.34563637 395.85188198 C79.19554001 396.68709662 79.04544366 397.52231127 78.89079893 398.38283545 C78.59291137 400.0403629 78.29500607 401.69788717 77.99708235 403.35540813 C77.13989288 408.12592646 76.28543653 412.89692415 75.43300819 417.66829538 C74.91456095 420.5667035 74.39361771 423.46465877 73.87196684 426.36249185 C73.51754137 428.33599788 73.16629217 430.31007351 72.81512833 432.28416252 C72.60552349 433.44607172 72.39591866 434.60798092 72.17996216 435.80509949 C71.99912142 436.81524707 71.81828068 437.82539465 71.63195992 438.86615276 C71.125 441.25 71.125 441.25 70.125 443.25 C25.575 443.25 -18.975 443.25 -64.875 443.25 C-62.57776516 426.02073873 -62.57776516 426.02073873 -61.25915527 418.78813171 C-61.034413 417.53172173 -61.034413 417.53172173 -60.80513048 416.24992973 C-60.31270329 413.5015716 -59.81555684 410.75409059 -59.31835938 408.0065918 C-58.9596158 406.00989477 -58.60117535 404.01314326 -58.24301147 402.01634216 C-57.47453647 397.73564157 -56.70397198 393.45532445 -55.93174744 389.17529869 C-54.69875017 382.34119415 -53.47071495 375.50620332 -52.24328613 368.6710968 C-50.06694803 356.55539377 -47.88654521 344.44042498 -45.7052002 332.32562256 C-41.83031484 310.80511295 -37.95973913 289.28382826 -34.09375 267.76171875 C-33.88756042 266.61396894 -33.68137085 265.46621913 -33.46893311 264.28368902 C-28.48192878 236.52032255 -23.51033702 208.75488856 -18.71875 180.95703125 C-18.5167247 179.78721899 -18.3146994 178.61740673 -18.10655212 177.41214561 C-17.55994132 174.24110884 -17.01637039 171.06957363 -16.47460938 167.89770508 C-16.24724594 166.57496928 -16.24724594 166.57496928 -16.01528931 165.22551155 C-12.98564206 147.34892104 -10.90384278 128.65030075 -20.5 112.375 C-26.61619094 104.0831491 -35.53266356 99.35650713 -45.59130859 97.54736328 C-67.70576887 94.66780239 -88.32024463 98.72370821 -106.37817383 112.15942383 C-133.64317817 133.30258668 -141.69122568 164.76372205 -148.6328125 197.015625 C-148.8894593 198.20361159 -148.8894593 198.20361159 -149.15129089 199.41559792 C-153.16954757 218.08624946 -156.5633247 236.85998532 -159.88442993 255.66496277 C-160.7297763 260.44257645 -161.58317233 265.21875337 -162.43554688 269.99511719 C-164.0461671 279.02705017 -165.64994567 288.06018299 -167.25106049 297.09380531 C-169.04598306 307.21896887 -170.84867431 317.3427441 -172.65202332 327.46640968 C-175.33776904 342.54458972 -178.01980072 357.62342451 -180.69584656 372.70332909 C-181.15159406 375.27064714 -181.60778122 377.8378867 -182.06408691 380.40510559 C-183.55702488 388.80704811 -185.04509409 397.20980314 -186.52246857 405.61449814 C-187.26093997 409.81341625 -188.00178314 414.01191422 -188.74290466 418.2103653 C-189.0998054 420.23587634 -189.45558205 422.2615858 -189.81019592 424.28749847 C-190.30099147 427.09093225 -190.79558042 429.89367209 -191.29101562 432.69628906 C-191.51001022 433.95590076 -191.51001022 433.95590076 -191.73342896 435.24095917 C-192.76110848 441.02221696 -192.76110848 441.02221696 -193.875 443.25 C-238.425 443.25 -282.975 443.25 -328.875 443.25 C-328.875 438.65332805 -328.84222895 435.19394227 -328.05426025 430.83840942 C-327.87077561 429.80713551 -327.68729097 428.77586159 -327.49824619 427.71333694 C-327.19022273 426.03596514 -327.19022273 426.03596514 -326.87597656 424.32470703 C-326.65992988 423.12067608 -326.44388319 421.91664513 -326.22128963 420.67612839 C-325.74535578 418.02913622 -325.26718489 415.38266395 -324.78517723 412.73678207 C-323.99366408 408.39192646 -323.21072569 404.04554864 -322.42854309 399.69900513 C-321.27769661 393.30910491 -320.12256282 386.9199918 -318.96463013 380.53137207 C-317.10094708 370.24827701 -315.24589158 359.9636353 -313.39233398 349.67871094 C-312.74445627 346.08422388 -312.09654221 342.48974337 -311.44862366 338.89526367 C-311.28545999 337.99002284 -311.12229631 337.084782 -310.95418829 336.15210962 C-309.76649564 329.56323943 -308.57763143 322.97458119 -307.38841248 316.38598633 C-302.05372974 286.8267571 -296.74915877 257.26218813 -291.45703125 227.6953125 C-291.25918675 226.59003346 -291.06134225 225.48475442 -290.85750246 224.34598207 C-288.46925027 211.00375396 -286.08165244 197.66140881 -283.69437993 184.31900537 C-280.14249753 164.46766513 -276.58976673 144.61647694 -273.03515625 124.765625 C-272.85989395 123.78681602 -272.68463164 122.80800704 -272.50405836 121.79953718 C-268.65427941 100.29990085 -264.79853737 78.80135968 -260.92138672 57.30664062 C-260.77727049 56.50766704 -260.63315426 55.70869345 -260.48467088 54.88550854 C-257.61987223 39.00608526 -254.74637616 23.12823539 -251.875 7.25 C-209.635 7.25 -167.395 7.25 -123.875 7.25 C-130.78355705 48.70134228 -130.78355705 48.70134228 -133.75 66 C-134.05996694 67.81118575 -134.36986244 69.62238373 -134.6796875 71.43359375 C-135.41065102 75.70586782 -136.14252389 79.97798502 -136.875 84.25 C-136.22708496 83.18998779 -135.57916992 82.12997559 -134.91162109 81.0378418 C-126.00702932 66.5649611 -126.00702932 66.5649611 -120.5 60.0625 C-119.95601562 59.40870361 -119.41203125 58.75490723 -118.8515625 58.08129883 C-117.20852725 56.12330095 -115.54709983 54.18320851 -113.875 52.25 C-113.11268066 51.36586426 -113.11268066 51.36586426 -112.33496094 50.46386719 C-101.38508664 37.88756205 -89.2231862 27.73472583 -74.875 19.25 C-74.30088379 18.90340332 -73.72676758 18.55680664 -73.13525391 18.19970703 C-58.09725571 9.21909044 -41.14684391 3.88847204 -23.875 1.25 C-22.17923828 0.97542969 -22.17923828 0.97542969 -20.44921875 0.6953125 C-13.67336743 -0.1169142 -6.81542153 0.00558734 0 0 Z " fill="#4F39F6" transform="translate(3675.875,3464.75)"/>
<path d="M0 0 C152.13 0 304.26 0 461 0 C454.43234304 37.01770288 447.79173907 74.02275396 441 111 C388.86 111 336.72 111 283 111 C282.34 115.62 281.68 120.24 281 125 C280.51825894 127.91274938 280.02656175 130.81720563 279.5009613 133.7215271 C279.36331918 134.49364745 279.22567707 135.2657678 279.08386397 136.06128573 C278.63040205 138.60166027 278.17349565 141.14140184 277.71655273 143.68115234 C277.38468814 145.53614061 277.05303902 147.39116745 276.72158527 149.24622917 C275.81850887 154.29694986 274.91239855 159.34712204 274.0057497 164.39720249 C273.03154381 169.82663903 272.06016847 175.25658204 271.08843994 180.6864624 C269.19790991 191.24793425 267.30478563 201.80893948 265.4107939 212.36979103 C263.21062439 224.63856388 261.01326714 236.90783991 258.8160187 249.17713618 C253.64775435 278.03560758 248.47439586 306.89316488 243.29989624 335.7505188 C242.03355786 342.81274419 240.76736668 349.87499597 239.5012207 356.93725586 C226.55958733 429.12241625 226.55958733 429.12241625 220.13043272 464.94807553 C219.64013446 467.68028889 219.14988345 470.41251072 218.65964794 473.14473534 C217.26250712 480.93126901 215.86521467 488.71777504 214.46658295 496.50404108 C211.72073517 511.79122689 208.9805399 527.07930236 206.27589977 542.37383962 C205.91133365 544.4346623 205.54627733 546.49539746 205.18101597 548.55609703 C205.06436429 549.21425018 204.94771261 549.87240333 204.82752603 550.55050051 C204.65534747 551.52189268 204.65534747 551.52189268 204.47969055 552.51290894 C203.61362735 557.39945525 202.75261264 562.28685232 201.8946991 567.17483521 C201.51959483 569.29351206 201.1443075 571.41215651 200.76879883 573.53076172 C200.60193132 574.4901553 200.43506382 575.44954887 200.26313972 576.43801498 C200.03310155 577.72853964 200.03310155 577.72853964 199.79841614 579.0451355 C199.66728833 579.7907971 199.53616053 580.5364587 199.40105915 581.30471611 C199 583 199 583 198 584 C196.13971966 584.09650437 194.27572971 584.12187292 192.41294861 584.12025452 C191.19993576 584.12162918 189.98692291 584.12300385 188.7371521 584.12442017 C187.38067603 584.12088056 186.0242002 584.11724575 184.66772461 584.11352539 C183.24887596 584.11324352 181.83002716 584.11340124 180.41117859 584.1139679 C176.54771199 584.11425589 172.68427617 584.1083589 168.82081676 584.10139394 C164.78757427 584.09516067 160.75433115 584.09455662 156.72108459 584.09336853 C149.07834532 584.09025514 141.43562027 584.08204164 133.79288727 584.07201904 C125.09411981 584.06085816 116.39535169 584.05534752 107.69657886 584.05032361 C89.79771116 584.03985903 71.89885672 584.02225943 54 584 C54.56054218 574.84823748 55.92670375 565.94871207 57.5715332 556.93676758 C57.83963779 555.44414522 58.10724432 553.95143334 58.37440109 552.45864105 C59.10558064 548.38107061 59.84367048 544.30477767 60.5829041 540.22866082 C61.38296246 535.80986313 62.17637711 531.38987218 62.9705658 526.97001648 C64.35133478 519.2905726 65.73604253 511.61184761 67.12341309 503.93359375 C69.33563693 491.68981591 71.54002968 479.44463493 73.74316406 467.19921875 C74.50322515 462.97512093 75.26333632 458.75103213 76.02346802 454.52694702 C76.21378841 453.46929685 76.4041088 452.41164668 76.60019648 451.3219465 C77.97321318 443.69238741 79.34734289 436.06302924 80.72189331 428.43374634 C86.41586862 396.82775781 92.08780006 365.21786382 97.74609375 333.60546875 C98.14966066 331.35091451 98.55322829 329.0963604 98.95679665 326.84180641 C101.1420506 314.63344463 103.32680449 302.42499338 105.511347 290.21650428 C123.1111779 191.85850472 123.1111779 191.85850472 130.62163544 150.19346619 C131.19130555 147.03313454 131.76040714 143.87270141 132.32898712 140.71217346 C132.98066941 137.09007023 133.63368059 133.46820923 134.2878046 129.84654617 C134.63678876 127.91265535 134.98448753 125.97853271 135.33214569 124.04440308 C135.53898232 122.90105499 135.74581894 121.75770691 135.95892334 120.57971191 C136.22622568 119.09744991 136.22622568 119.09744991 136.49892807 117.58524323 C136.92731942 115.37499002 137.45395872 113.18416512 138 111 C86.19 111 34.38 111 -19 111 C-15.26481658 73.64816583 -6.58618723 36.95582835 0 0 Z " fill="#4F39F6" transform="translate(2488,3324)"/>
<path d="M0 0 C1.61703903 0.00056958 1.61703903 0.00056958 3.26674551 0.00115067 C4.50534199 -0.00084038 5.74393846 -0.00283143 7.02006817 -0.00488281 C8.41236512 -0.00202922 9.80466189 0.00091639 11.19695848 0.00394398 C12.66212586 0.00350841 14.12729316 0.00263376 15.59246004 0.00135481 C19.63776924 -0.00089289 23.68305223 0.00313488 27.72835809 0.00813287 C32.08352777 0.01243326 36.43869585 0.01099125 40.79386705 0.0102306 C48.34585289 0.0097051 55.89783011 0.01285459 63.44981378 0.01846844 C74.36884518 0.02657996 85.2878724 0.0291983 96.20690649 0.03045643 C113.92038464 0.0326475 131.63385819 0.03930907 149.34733385 0.04875904 C166.55892216 0.05793175 183.77050922 0.06501327 200.98209947 0.06926686 C202.04222018 0.06952958 203.10234089 0.0697923 204.19458646 0.07006299 C209.51266112 0.07136798 214.83073578 0.0726317 220.14881045 0.07387489 C264.29905385 0.08424921 308.44929225 0.10186901 352.59953111 0.1241985 C352.27999489 2.53153946 351.9600774 4.93882872 351.63994116 7.3460899 C351.549968 8.02423565 351.45999485 8.70238141 351.36729524 9.40107703 C349.83427585 20.92111052 347.96273096 32.38766553 346.02385801 43.84551388 C345.32838741 47.9616032 344.65339168 52.07889742 344.02457994 56.20574147 C338.98442107 89.12946853 338.98442107 89.12946853 329.18148607 96.96248585 C327.67385657 98.04436783 326.13772094 99.08622576 324.59953111 100.1241985 C322.50328405 102.27976945 322.50328405 102.27976945 320.91203111 104.3116985 C317.49976473 108.33360057 313.75584312 111.98181796 310.00578111 115.6866985 C307.94503767 117.77420485 306.00437485 119.89589073 304.09953111 122.1241985 C300.6162057 126.199032 296.82134404 129.91712841 293.00968736 133.68279225 C290.33098579 136.39622577 287.85344993 139.23196872 285.37687486 142.12810475 C282.64853826 145.19223662 279.70285203 148.02901681 276.78312486 150.90935475 C274.8197844 152.9007931 272.97873442 154.93722428 271.16203111 157.0616985 C268.44333864 160.2345577 265.57201437 163.18758231 262.59953111 166.1241985 C259.64770086 169.04046453 256.79564253 171.97025684 254.09953111 175.1241985 C250.61501005 179.20043069 246.8187113 182.91970723 243.00578111 186.6866985 C240.94503767 188.77420485 239.00437485 190.89589073 237.09953111 193.1241985 C233.6162057 197.199032 229.82134404 200.91712841 226.00968736 204.68279225 C223.33098579 207.39622577 220.85344993 210.23196872 218.37687486 213.12810475 C215.64853826 216.19223662 212.70285203 219.02901681 209.78312486 221.90935475 C207.8197844 223.9007931 205.97873442 225.93722428 204.16203111 228.0616985 C201.44333864 231.2345577 198.57201437 234.18758231 195.59953111 237.1241985 C192.64770086 240.04046453 189.79564253 242.97025684 187.09953111 246.1241985 C183.61501005 250.20043069 179.8187113 253.91970723 176.00578111 257.6866985 C173.94503767 259.77420485 172.00437485 261.89589073 170.09953111 264.1241985 C166.6162057 268.199032 162.82134404 271.91712841 159.00968736 275.68279225 C156.33098579 278.39622577 153.85344993 281.23196872 151.37687486 284.12810475 C148.64853826 287.19223662 145.70285203 290.02901681 142.78312486 292.90935475 C140.8197844 294.9007931 138.97873442 296.93722428 137.16203111 299.0616985 C134.44333864 302.2345577 131.57201437 305.18758231 128.59953111 308.1241985 C125.64770086 311.04046453 122.79564253 313.97025684 120.09953111 317.1241985 C116.62218404 321.19203847 112.83450901 324.90423553 109.02921861 328.663261 C106.27703505 331.45084242 103.70042007 334.34676681 101.16984361 337.335136 C99.40330754 339.3477567 97.49311129 341.23061832 95.59953111 343.1241985 C162.25953111 343.4541985 228.91953111 343.7841985 297.59953111 344.1241985 C293.19751138 374.93833667 287.09854988 405.48680824 281.59953111 436.1241985 C159.82953111 436.1241985 38.05953111 436.1241985 -87.40046889 436.1241985 C-86.79874264 430.10693606 -86.19320248 424.40049315 -85.15706068 418.49065357 C-84.97628477 417.45194363 -84.97628477 417.45194363 -84.79185683 416.39224964 C-84.39875865 414.14196364 -83.99984875 411.89276986 -83.59968764 409.64372975 C-83.462174 408.86729304 -83.32466036 408.09085633 -83.18297964 407.29089123 C-82.45652033 403.1906773 -81.72546649 399.09131409 -80.99055678 394.9926067 C-80.23588378 390.77840423 -79.49724119 386.56155499 -78.76215082 382.34389931 C-78.19021731 379.07965797 -77.60640874 375.81762019 -77.01940542 372.55605847 C-76.74190065 371.00242242 -76.46881149 369.44799052 -76.20037085 367.89276272 C-75.82349296 365.71589901 -75.42978799 363.54269738 -75.03206068 361.36955982 C-74.81301573 360.13619389 -74.59397078 358.90282795 -74.3682881 357.63208729 C-72.87170025 352.20766124 -70.29367238 347.58586685 -66.19343764 343.65935475 C-65.61029799 343.09103932 -65.02715834 342.52272389 -64.42634779 341.93718678 C-63.81968275 341.35952564 -63.21301771 340.78186451 -62.58796889 340.1866985 C-61.3270049 338.95812506 -60.06786889 337.72767247 -58.81062514 336.49529225 C-57.91754652 335.62106617 -57.91754652 335.62106617 -57.00642592 334.72917897 C-54.51767241 332.24193884 -52.24289072 329.59640518 -49.97078139 326.913261 C-47.57220797 324.18055795 -44.95900954 321.67414622 -42.36921889 319.1241985 C-40.46060434 317.18528848 -38.67336337 315.18720299 -36.90046889 313.1241985 C-34.50370301 310.33523456 -32.02087498 307.70429065 -29.40046889 305.1241985 C-26.80064705 302.56429715 -24.33778491 299.9564031 -21.96296889 297.1866985 C-18.68916236 293.37595787 -15.16682917 289.87341685 -11.59187514 286.34685475 C-8.97945821 283.6971841 -6.56744268 280.91247047 -4.14656264 278.08904225 C-1.67443471 275.30720702 0.98383658 272.73043898 3.63468736 270.12029225 C5.52183855 268.20312673 7.28638486 266.22844528 9.03703111 264.1866985 C12.31083764 260.37595787 15.83317083 256.87341685 19.40812486 253.34685475 C22.02054179 250.6971841 24.43255732 247.91247047 26.85343736 245.08904225 C29.32434501 242.30858018 31.98120051 239.73301632 34.63078111 237.1241985 C36.53939566 235.18528848 38.32663663 233.18720299 40.09953111 231.1241985 C42.49629699 228.33523456 44.97912502 225.70429065 47.59953111 223.1241985 C50.19935295 220.56429715 52.66221509 217.9564031 55.03703111 215.1866985 C58.31083764 211.37595787 61.83317083 207.87341685 65.40812486 204.34685475 C68.02054179 201.6971841 70.43255732 198.91247047 72.85343736 196.08904225 C75.32556529 193.30720702 77.98383658 190.73043898 80.63468736 188.12029225 C82.52183855 186.20312673 84.28638486 184.22844528 86.03703111 182.1866985 C89.31083764 178.37595787 92.83317083 174.87341685 96.40812486 171.34685475 C99.02054179 168.6971841 101.43255732 165.91247047 103.85343736 163.08904225 C106.32556529 160.30720702 108.98383658 157.73043898 111.63468736 155.12029225 C113.52183855 153.20312673 115.28638486 151.22844528 117.03703111 149.1866985 C120.31083764 145.37595787 123.83317083 141.87341685 127.40812486 138.34685475 C130.02054179 135.6971841 132.43255732 132.91247047 134.85343736 130.08904225 C137.32434501 127.30858018 139.98120051 124.73301632 142.63078111 122.1241985 C144.53939566 120.18528848 146.32663663 118.18720299 148.09953111 116.1241985 C151.10992878 112.62119031 154.31728244 109.38648999 157.60734361 106.147636 C160.24818564 103.465369 162.70624779 100.64612461 165.15421861 97.788261 C166.25355909 96.52253385 167.41407452 95.30965509 168.59953111 94.1241985 C106.55953111 93.7941985 44.51953111 93.4641985 -19.40046889 93.1241985 C-18.73911519 87.17201519 -17.99488323 81.37219462 -16.92585951 75.4991985 C-16.70859457 74.28531704 -16.70859457 74.28531704 -16.48694044 73.04691273 C-16.0132698 70.40544533 -15.53520056 67.76479831 -15.05671889 65.1241985 C-14.72409014 63.27860376 -14.39161369 61.43298157 -14.05928236 59.58733326 C-13.36530402 55.73743613 -12.66905822 51.88795757 -11.97126967 48.03874928 C-11.07535783 43.09522659 -10.18584013 38.15057742 -9.29805952 33.20558888 C-8.61456608 29.40312733 -7.92740246 25.60133615 -7.23913771 21.79973561 C-6.90937926 19.97541445 -6.58085597 18.15086959 -6.25357252 16.32610279 C-5.79785886 13.78804638 -5.33714729 11.25094817 -4.87507826 8.71404225 C-4.7399835 7.95566563 -4.60488875 7.19728901 -4.46570021 6.41593128 C-3.31875381 0.17170988 -3.31875381 0.17170988 0 0 Z " fill="#4F39F6" transform="translate(5407.400468885899,3471.8758015036583)"/>
<path d="M0 0 C117.15 0 234.3 0 355 0 C353.87286182 13.52565812 353.87286182 13.52565812 352.8359375 19.88891602 C352.72345169 20.58500977 352.61096588 21.28110352 352.49507141 21.99829102 C351.32786742 29.16927729 350.09897931 36.33028727 348.86474609 43.48999023 C348.2839772 46.87065341 347.7227303 50.25369167 347.17822266 53.64038086 C346.51399877 57.77065638 345.81557781 61.89381575 345.09332275 66.0143261 C344.82649425 67.56903777 344.57121929 69.12578452 344.32855225 70.68445015 C342.67686411 81.21413186 339.72865566 88.27686566 332 96 C331.36643082 96.6648793 330.73286163 97.32975861 330.08009338 98.01478577 C328.5465873 99.61259818 326.97239491 101.15379192 325.375 102.6875 C321.30726043 106.67084906 317.42389074 110.69888808 313.73828125 115.04296875 C310.78518422 118.36769147 307.57244491 121.43446242 304.41015625 124.55859375 C301.73145468 127.27202727 299.25391882 130.10777023 296.77734375 133.00390625 C294.04900715 136.06803813 291.10332092 138.90481832 288.18359375 141.78515625 C286.22025329 143.77659461 284.37920331 145.81302578 282.5625 147.9375 C279.84380752 151.1103592 276.97248325 154.06338382 274 157 C271.04816975 159.91626603 268.19611141 162.84605835 265.5 166 C262.01547893 170.07623219 258.21918019 173.79550873 254.40625 177.5625 C252.34550655 179.65000635 250.40484374 181.77169223 248.5 184 C245.01667458 188.0748335 241.22181292 191.79292992 237.41015625 195.55859375 C234.73145468 198.27202727 232.25391882 201.10777023 229.77734375 204.00390625 C227.04900715 207.06803813 224.10332092 209.90481832 221.18359375 212.78515625 C219.22025329 214.77659461 217.37920331 216.81302578 215.5625 218.9375 C212.84380752 222.1103592 209.97248325 225.06338382 207 228 C204.04816975 230.91626603 201.19611141 233.84605835 198.5 237 C195.01547893 241.07623219 191.21918019 244.79550873 187.40625 248.5625 C185.34550655 250.65000635 183.40484374 252.77169223 181.5 255 C178.01667458 259.0748335 174.22181292 262.79292992 170.41015625 266.55859375 C167.73145468 269.27202727 165.25391882 272.10777023 162.77734375 275.00390625 C160.04900715 278.06803813 157.10332092 280.90481832 154.18359375 283.78515625 C152.22025329 285.77659461 150.37920331 287.81302578 148.5625 289.9375 C145.84380752 293.1103592 142.97248325 296.06338382 140 299 C137.04816975 301.91626603 134.19611141 304.84605835 131.5 308 C128.01547893 312.07623219 124.21918019 315.79550873 120.40625 319.5625 C117.75677237 322.24638643 115.30985178 325.05098514 112.86328125 327.91796875 C109.7770087 331.36657099 106.44841546 334.57022872 103.13671875 337.80078125 C100.8647287 340.00578065 100.8647287 340.00578065 99 343 C198.495 343.495 198.495 343.495 300 344 C299.4006606 350.59273343 298.80343831 356.89822784 297.6171875 363.36132812 C297.48209778 364.11889404 297.34700806 364.87645996 297.20782471 365.65698242 C296.76812706 368.11591896 296.32173727 370.57358356 295.875 373.03125 C295.56459246 374.75705804 295.25453998 376.48292998 294.94482422 378.2088623 C294.29881667 381.80318652 293.64968097 385.39692604 292.99804688 388.99023438 C292.16268549 393.59720533 291.33351753 398.20526393 290.50643921 402.81372833 C289.86829148 406.36731601 289.22779442 409.92047682 288.58648682 413.47349548 C288.27976387 415.17348337 287.97356757 416.87356637 287.66790771 418.57374573 C287.24180199 420.9408555 286.81274953 423.30741165 286.3828125 425.67382812 C286.25706848 426.37511841 286.13132446 427.07640869 286.00177002 427.7989502 C285.48609143 430.62216916 284.90929808 433.27210576 284 436 C162.23 436 40.46 436 -85 436 C-82.525 421.15 -82.525 421.15 -80 406 C-79.22140625 401.16730469 -78.4428125 396.33460938 -77.640625 391.35546875 C-76.4453125 384.25195313 -76.4453125 384.25195313 -75.84472656 380.73266602 C-75.44229758 378.33378621 -75.05334549 375.93261304 -74.67675781 373.52954102 C-74.1154125 369.96490298 -73.50783773 366.41080366 -72.890625 362.85546875 C-72.73402405 361.79297409 -72.5774231 360.73047943 -72.41607666 359.63578796 C-70.90065169 351.34235229 -67.20629743 347.45796966 -61 342 C-59.81024166 340.68723042 -58.6390928 339.35696591 -57.5 338 C-54.24955349 334.20781241 -50.74550431 330.72864469 -47.19140625 327.22265625 C-44.57898932 324.5729856 -42.16697379 321.78827197 -39.74609375 318.96484375 C-37.27396582 316.18300852 -34.61569453 313.60624049 -31.96484375 310.99609375 C-30.07769256 309.07892823 -28.31314625 307.10424678 -26.5625 305.0625 C-23.28869347 301.25175937 -19.76636029 297.74921835 -16.19140625 294.22265625 C-13.57898932 291.5729856 -11.16697379 288.78827197 -8.74609375 285.96484375 C-6.27396582 283.18300852 -3.61569453 280.60624049 -0.96484375 277.99609375 C0.92230744 276.07892823 2.68685375 274.10424678 4.4375 272.0625 C7.71130653 268.25175937 11.23363971 264.74921835 14.80859375 261.22265625 C17.42101068 258.5729856 19.83302621 255.78827197 22.25390625 252.96484375 C24.72481389 250.18438168 27.3816694 247.60881782 30.03125 245 C31.93986455 243.06108998 33.72710552 241.06300449 35.5 239 C37.89676588 236.21103607 40.37959391 233.58009215 43 231 C45.59982183 228.44009866 48.06268398 225.8322046 50.4375 223.0625 C53.71130653 219.25175937 57.23363971 215.74921835 60.80859375 212.22265625 C63.42101068 209.5729856 65.83302621 206.78827197 68.25390625 203.96484375 C70.72603418 201.18300852 73.38430547 198.60624049 76.03515625 195.99609375 C77.92230744 194.07892823 79.68685375 192.10424678 81.4375 190.0625 C84.71130653 186.25175937 88.23363971 182.74921835 91.80859375 179.22265625 C94.42101068 176.5729856 96.83302621 173.78827197 99.25390625 170.96484375 C101.72481389 168.18438168 104.3816694 165.60881782 107.03125 163 C108.93986455 161.06108998 110.72710552 159.06300449 112.5 157 C114.89676588 154.21103607 117.37959391 151.58009215 120 149 C122.59982183 146.44009866 125.06268398 143.8322046 127.4375 141.0625 C130.71130653 137.25175937 134.23363971 133.74921835 137.80859375 130.22265625 C140.42101068 127.5729856 142.83302621 124.78827197 145.25390625 121.96484375 C147.72603418 119.18300852 150.38430547 116.60624049 153.03515625 113.99609375 C154.92230744 112.07892823 156.68685375 110.10424678 158.4375 108.0625 C161.81597268 104.12224896 165.46088776 100.50076343 169.1796875 96.8828125 C171.06383898 95.12246661 171.06383898 95.12246661 172 93 C109.96 93 47.92 93 -16 93 C-14.85101549 79.21218588 -14.85101549 79.21218588 -13.6171875 72.52514648 C-13.41455292 71.38857857 -13.41455292 71.38857857 -13.20782471 70.22904968 C-12.76894841 67.77539168 -12.32217182 65.32325221 -11.875 62.87109375 C-11.56451573 61.14672881 -11.2544648 59.4222858 -10.94482422 57.69776917 C-10.29933106 54.1093248 -9.65017832 50.52156999 -8.99804688 46.93432617 C-8.16207246 42.33534054 -7.33305372 37.73513568 -6.50643921 33.1344595 C-5.86836303 29.58514961 -5.22785868 26.03628169 -4.58648682 22.48756599 C-4.27981241 20.79036058 -3.97361625 19.09306867 -3.66790771 17.39568901 C-3.24183673 15.03347055 -2.8127871 12.67181335 -2.3828125 10.31030273 C-2.25706848 9.6105835 -2.13132446 8.91086426 -2.00177002 8.18994141 C-1.48565961 5.37069379 -0.90808405 2.72425215 0 0 Z " fill="#4F39F6" transform="translate(5005,3472)"/>
</svg>
